<?xml version="1.0" encoding="UTF-8" standalone="no"?>
<!DOCTYPE svg PUBLIC "-//W3C//DTD SVG 1.1//EN" "http://www.w3.org/Graphics/SVG/1.1/DTD/svg11.dtd">
<svg version="1.1" xmlns="http://www.w3.org/2000/svg" xmlns:xlink="http://www.w3.org/1999/xlink" preserveAspectRatio="xMidYMid meet" viewBox="0 0 640 640" width="1120" height="1120"><defs><path d="M0 640L640 640L640 384.07C618.46 370.72 605 362.38 599.62 359.05C586.41 350.86 570.6 347.97 555.35 350.94C543.72 353.21 560.09 350.02 555.35 350.94C518.68 358.1 487.37 381.79 470.51 415.14C458.03 439.81 452.15 451.44 440.88 473.73C420.42 514.2 381.05 541.75 336.02 547.11C325.49 548.36 350.44 545.39 336.02 547.11C301.6 551.21 266.72 545.65 235.28 531.05C211.63 520.07 197.93 513.71 176.57 503.8C140.04 486.84 97.09 491.84 65.44 516.74C56.71 523.61 34.9 540.77 0 568.23L0 640Z" id="i2ZGeqVotQ"></path></defs><g><g><g><use xlink:href="#i2ZGeqVotQ" opacity="1" fill="#cead3a" fill-opacity="1"></use><g><use xlink:href="#i2ZGeqVotQ" opacity="1" fill-opacity="0" stroke="#000000" stroke-width="0" stroke-opacity="1"></use></g></g></g></g></svg>