<svg xmlns="http://www.w3.org/2000/svg" viewBox="0 0 176.74 59.6"><defs><style>.cls-1{isolation:isolate;}.cls-2{opacity:0.95;mix-blend-mode:multiply;}.cls-3{fill:#cead3a;}</style></defs><title>brush1</title><g class="cls-1"><g id="Layer_2" data-name="Layer 2"><g id="z"><g class="cls-2"><path class="cls-3" d="M73.29,2.13c.1-.55.56-.65.8-.31s.74.19.93.55a.28.28,0,0,1,0,.28c-.12.14-.29.25-.34.43.45.12.75-.65,1.24-.21S77,3.71,77.59,3a.7.7,0,0,1,.57-.37,6.59,6.59,0,0,0,4-1.22A5.5,5.5,0,0,1,84.61.93a2.41,2.41,0,0,1,1.6.25l.5.5c.2.32-.45.55-.2.69.78.43.22-.44.47-.56s.57,0,.84-.12a1,1,0,0,1,.34.07.73.73,0,0,1,.26.92,9.83,9.83,0,0,0,.13,1.09c0-.3,0-.6,0-.89a.7.7,0,0,1,.49-.6.8.8,0,0,1,.31,0,2.78,2.78,0,0,0,.91,0,.78.78,0,0,1,.69.39,1.07,1.07,0,0,1,0,.66c0,.22-.26.49-.11.61s.2-.21.32-.32a.9.9,0,0,1,.26-.17,1.75,1.75,0,0,1,.6,0,.41.41,0,0,0,.34-.22A.38.38,0,0,1,92.64,3a1,1,0,0,1,.78.38c.18.18.45.25.58.49-.12,1.26-.12,1.26,1.33,1.72l.28.63c.15.24,0,.7.56.63.73-.06,1.06,1.08,1.9.65-.11-.11-.18,0-.28,0C96.55,7.28,97,6.62,97.38,6c.25-.21.62,0,.86-.25h0c.36-.27.84.06,1.2-.24l.06-.05,0-.07c.38-.29.76.39,1.13,0a7.1,7.1,0,0,0,1-.32l.26-.27c.45-.36.83-.21,1.18.17s.39,0,.54-.08l0,0-.07,0a.36.36,0,0,1-.23,0c-.28-.16-.51-.35-.38-.72.31-.38.66.1,1,0a6.27,6.27,0,0,1,3.34-1.38c.39,0,.78,0,1-.34s.81-.15,1.14-.43c.28-.51.8-.35,1.24-.46C112.35,1,114,.47,115.64.05a2.43,2.43,0,0,1,2,.66c.33.41-.21,1.27.71,1.38a1.49,1.49,0,0,1,.3.09c.37,0,.18.62.61.58.58.13.68.71,1,1.05.75,0,.38-.88.89-1a1.08,1.08,0,0,1,.3-.16c.54-.14.92-.34.33-.91s-.55-.85.33-.77l.31.26c.21.2.61.1.72.45h0c.1.6,1,.86.67,1.65a.76.76,0,0,1-.19.25,1.66,1.66,0,0,0-1,1.54c0,.56.32.18.5.19.32.19,0-.3.27-.23a1.13,1.13,0,0,1,1,.42c.42.42.68,1.17,1.51.76a.75.75,0,0,0,.62-.07c.35-.12.77-.06,1-.42l.4,0a1.23,1.23,0,0,1,.8-.1c.71,0,.78,0,.95-.57l.44,0c.37-.42.78.2,1.16,0,.08-.27.3-.21.49-.2.37.35.23.74.09,1.13a.31.31,0,0,0,.09.49,2.32,2.32,0,0,1,.49.67c-.1-.46-.68-.85-.39-1.33s.77-.52,1.17-.77c.65.14.43.67.45,1.07,0,.81.44.37.75.21s.3-.68.77-.66a.66.66,0,0,1,.61.44l0,0c.22.25.09.51,0,.76s-.15.4-.23.6-.28.64-.43,1c.23-.06.21-.31.34-.42s.58-.2.83-.39c.5-.07.21-.26,0-.42a.76.76,0,0,1-.21-.6.43.43,0,0,1,.17-.28l.47,0c.43.11.54.59.9.8a.33.33,0,0,1,.17.24,1,1,0,0,0,.38.83c.42.57.6,1.06-.45,1.12a4.08,4.08,0,0,1,.91,1.1,3.19,3.19,0,0,0,.51.7c.1-.34-.16-.5-.32-.7-.49-.6-.57-1.09.38-1.25a1,1,0,0,1,.34.07c.4.19.58.59.85,1,.2-.33.46-.58.87-.48a1.38,1.38,0,0,1,.72.67.58.58,0,0,1,0,.85c-.32.57-.24,1,.5,1l.46.12c.26.1.35.43.65.5.1.12,0-.12,0-.12-.35,0-.29-.29-.27-.52a.67.67,0,0,1,.13-.3c1.13-.44,1.38.58,1.91,1.15.19.21.35.46.68.46a.56.56,0,0,1,.35.27,2.77,2.77,0,0,1,0,.95,1,1,0,0,1-.07.23c.07,0,0-.07.07-.1a1.48,1.48,0,0,0-.21-1.28c-.11-.43-.24-.91.2-1.16s.69.23,1,.46c.8.42.19-.67.65-.61a1.61,1.61,0,0,1,1.34.94c.17.48.48.24.74.28a1,1,0,0,1,.68.09,1.53,1.53,0,0,1,1,1.65c0,.71.6,1.53-.38,2.05-.1.13-.22,0-.33,0s0,.06.05.07a.41.41,0,0,0,.4-.15c.2-.07.44.15.61-.1a1.69,1.69,0,0,1,.92.09,3.44,3.44,0,0,1,2.58,0,2.7,2.7,0,0,1,1.35-.14c.34.5.67.25,1.11.1s1.21-.91,1.84-.07c0,.15.12.51.18.33.35-1.14.81-.35,1.25-.13a1.19,1.19,0,0,1,.81.64.44.44,0,0,1,0,.2c.07-.12,0-.23,0-.35a9.63,9.63,0,0,1-.08-1.08.77.77,0,0,1,.52-.61l1.15-.24c.28-.38.71-.09,1-.22l2,1.44a.89.89,0,0,1,.44.2c.24.34.62.59.67,1.06s.4.38.71.37a1,1,0,0,1,.51.13c.17.18.37.36,0,.58-.89.61-.34.87.27,1.12,0,.69-.05,1.39.7,1.85a.7.7,0,0,1,.08,1c.55-.54,1.38-.76,2-1.32.45-.25.25-1.14,1-1.07.08.43.86.23.76.83.49.39.23.92.26,1.39a1.23,1.23,0,0,1-.49.71,1.09,1.09,0,0,0-.3.49c-.27.65.5,1.24.08,1.89-.26.44-.33,1.08-1,1.11-.14-.07.05,0-.09,0s0,0,0,.05c.33.21.59.44.43.88a.83.83,0,0,1-.26.19,1.32,1.32,0,0,0-1.31,1,3.65,3.65,0,0,1-.23.92,2.37,2.37,0,0,1-.63.74c-.17.15-.54.28-.39.52.7,1.09-.26,1.24-.83,1.67.39-.14.74-.59,1.22-.3s.94.41.61,1.07a1.47,1.47,0,0,0-.65,1.27,1.83,1.83,0,0,1-.89.44c-.27,0-.53.14-.8.19s-.7,0-1.05.09-.2.41-.34.59c-1.24.08-1.81-.27-1.93-1.2a.85.85,0,0,1,.14-.19,1.79,1.79,0,0,1,.49-.27c-.75.11-1.26.22-1.53.78,0,.29.1.64-.27.82a9.93,9.93,0,0,1-1.22,0,2.39,2.39,0,0,1-.43-.2,2.38,2.38,0,0,0-2.53-.06,1.2,1.2,0,0,1-.48.11c-.68-.11-1.12-.45-1-1.2s.44-.9,1.21-.69c-1-.89-1-.88-1.45.1-.29.62-.67,1-1.18.17-.17-.26-.4-.21-.64-.18-1.33.11-1.53.43-1,1.59.13.26.26.49.07.77a.75.75,0,0,1-.65.1,2.14,2.14,0,0,1-1-1.28c-.28.32-.14.89-.63,1a6,6,0,0,1-.95,0,.5.5,0,0,1-.28-.14,1.89,1.89,0,0,1-.5-1.14c-.06.59.58,1.15-.05,1.72-.31.17-.63,0-.95,0-.51-.08-.81.26-1.14.54s-1.07.25-1.37.79c-.15.24-.09.63-.5.68a3.32,3.32,0,0,1-1.13-.2.92.92,0,0,1-.28-.19c-.2-.74.5-.93.81-1.37.25-.21.53-.39.77-.61.5-.92,1.63-.28,2.24-.9-.14-.07-.24,0-.35.07-.78.32-1.65,0-2.42.4a3.17,3.17,0,0,0-.76.11,4.2,4.2,0,0,0-1.12,1.86,1,1,0,0,1-.52.38,1.44,1.44,0,0,0-1.18.57c-.3.2-.73-.13-1,.26a2.8,2.8,0,0,0-1.73,1c-.25.19-.43.47-.69.67a.64.64,0,0,1-.6,0c-.26-.17-.23-.54-.5-.71s-.43-.26-.68-.11-.36.59-.63.82c-.56.11-.47.57-.52,1a.88.88,0,0,1-.59.44c-.24-.32-.45,0-.68,0a3.7,3.7,0,0,0-.74.06c-.39,0-.77.39-1.18,0s-.53-.63-.83-.92a.53.53,0,0,0-.64-.08c.22,0,.46-.12.65.09s.46.51.09.83a1.9,1.9,0,0,0-.74.58.67.67,0,0,1-.78.12c-.14,0-.11-.66-.42-.1-.1.17-.34.15-.53,0-.55-.3.19-.83-.2-1.15,0,0,0,0,0,.06s0,.1,0,.11c-.62.52-.14.8.23,1.1,0,1.12-.4,1.48-1.87,1.66-.22-.08-.32-.29-.21-.45.31-.45-.12-.58-.3-.82s.22-.44-.06-.48-.46.26-.56.53-.13.93-.79.8c-.28-.15-.35-.57-.72-.61-.11.42.33.79.09,1.2-.48.38-.91.55-1.14-.25-.05-.14,0,0,0-.11s-.47-.44-.55-.3c-.57,1-1.64-.71-2.15.42a.82.82,0,0,1-.17.47,1.61,1.61,0,0,1-.78.26,3.07,3.07,0,0,0-1.61.72,1.08,1.08,0,0,1-.29-.13c-.17,0-.51-.81-.51.12a.9.9,0,0,1-.48.74.7.7,0,0,1-.77-.21c-.15-.17-.26-.36-.39-.53-.87-.48-.83.48-1,.79s-.53.85-1.11.9-1.31.73-1.82-.2c-.3-.23,0-.89-.67-.88a2.16,2.16,0,0,1-.33.27c-.37.37.42.82-.08,1.17-.56-.1-1-.37-1.55.32-.35.46-1.21.48-1.6,1.07-.17.33-.35.19-.52,0s.24-.38-.09-.32a4.53,4.53,0,0,0-2.23,1,3.92,3.92,0,0,1-1.13-.08c-.29,0-.59-.14-.77.2a1.72,1.72,0,0,1-.8.66,4.41,4.41,0,0,0-.58.47,1.56,1.56,0,0,1-.35.33c-.18.08-.47.21-.54.09-.41-.73-1-.42-1.62-.41a1.62,1.62,0,0,0-.79.06h0c-.21,0-.26-.54-.6-.21-.48,0,0,.65-.44.73-.71.17-1-.69-1.7-.62-1-.12-1.78.71-2.74.82-.17,0-.34,0-.4.2-.52.48-.94-.13-1.41-.12-.29-.18-.34-.36,0-.55.52-.29,1.18-.22,1.62-.67-.44,0-.92.43-1.39,0-.63-.17-1.16-.7-1.89-.51-.21.17-.41.39-.73.22-.07-.18-.15-.36-.23-.55a1.23,1.23,0,0,0-1.33,0c-.68.51-1,.08-1.31-.4-.4-.67-1-.44-1.42-.17-.62.35-.3.67.13.92.59.94-.31.71-.69.89a7.19,7.19,0,0,0-2.36,1.76c-.62-.06-.24-.55-.35-.82,0-.44.29-.81.27-1.43-.1.61-.17,1-.62,1.26v0c-.44,0-.59.36-.77.67-.49.27-1.1.29-1.36,1-.2.51-.64.08-.71-.13-.47-1.38-1.22-.76-2-.31a1,1,0,0,1-.52.11c-.33-.11-.42-.39-.5-.67-.16-.92-.73-.34-1.15-.32a2.26,2.26,0,0,1-1-.24c-.18,0-.22-.59-.52-.11a4.82,4.82,0,0,0-.11.85.65.65,0,0,1-.66.32.49.49,0,0,0-.67.08.31.31,0,0,1-.32-.23c-.06-.18-.12-.35-.37-.3-.39-.18-1,.31-1.2-.47-.11-.47-.7-.79-.44-1.37a.59.59,0,0,1,.26-.21.55.55,0,0,1,.45.07c.12.25.2.54.58.4.15,0,0,.13.07,0s0-.12-.1-.08c-.34.1-.44-.11-.48-.38s-.37-.29-.63-.29c-1.21,0-2.41-.21-3.62-.1-.44-.07-.85,0-.86.52s.63.06.81.4c-1,.74-1.11.73-1.58-.17-.11-.52-.13-1.15-1-.75a.34.34,0,0,1-.22,0,1.13,1.13,0,0,1-.87-.36c-.37-.19-.51-.79-1.09-.58a1.89,1.89,0,0,0-.48.74,2.54,2.54,0,0,1-.16.28c-.49.43-.26,1.41-1.16,1.54-.36.08-.65.36-1,.36-.65,0-1.38-.69-1.9.25-.09.09-.23.08-.31.13s-.68-.66-.44.2c-.81.77.47.83.45,1.33a.27.27,0,0,1-.44,0c-.31,0-.53-.39-.89-.28-.21-.07-.45,0-.65-.12-.41-.24-.4-.75-.67-1.07-.81.07,0,1.26-.91,1.24-.44,0-.54.41-.73.7a.29.29,0,0,1-.25.14.58.58,0,0,1-.35-.24c-.46-.25-.4.07-.4.35,0,.5-.27.74-.75.64a.89.89,0,0,1-.7-1,1.4,1.4,0,0,1-.93,1.47l0,.07.07,0c-.47.17-.31.76-.69,1a.41.41,0,0,1-.42-.12,2.06,2.06,0,0,1-.33-.62c-.16-.15-.17.06-.25.11a1.51,1.51,0,0,1-.71.51,3.13,3.13,0,0,0-1.29.5c-.28.13-.49.46-.86.27h0c-.37-.1-.75-.19-.86-.63s-.34-.63-.78-.38c-.27.25,0,.45,0,.67a.44.44,0,0,1-.51.51c-.43-.1-.74-.46-1.18-.52-.73.14-1.23-.45-1.86-.61l-.64.52c-.71.64-1,0-1.35-.43a3.13,3.13,0,0,1,.07-.86,1.51,1.51,0,0,1,.21-.65,2.09,2.09,0,0,1,.87-.43c.45-.18.51-.38,0-.62-.54.27-1.07.51-1.61,0a1.44,1.44,0,0,1-.32-.38,4.56,4.56,0,0,1-.51-1,.5.5,0,0,1,.32-.53c.31-.32,1.12.92,1.12-.35-.26-.33-.69-.18-1-.37s-.45-.53-.72-.05c-.11.24-.2.5-.51.53l-.48-.22c-.43-.39-.84-.44-1.21.07h0c-.56.09-.3-.75-.81-.71-.94-.7-1.46.11-2.08.56a1.09,1.09,0,0,1-1.3-.84c-.06,0,0-.19-.11-.15s0,.17.06.27a1.45,1.45,0,0,0,.09.22c.2.43.4,1,.06,1.31a1.15,1.15,0,0,1-1.37,0l-.27,0a.46.46,0,0,1-.15-.28,5.47,5.47,0,0,1,.09-.65c-.18.48-.57.68-.73,1a1.57,1.57,0,0,1-.12.3,3.33,3.33,0,0,1-1.2,1.07c-.45.13-1,0-1.34.41-.63.27-1.22,0-1.82-.15-.28.3-.2,1.12-1,.71-.3-.21-.26-.69-.64-.83-.63-.12-1,.42-1.51.58-.71-.48-1.44.23-2.15-.06a1,1,0,0,1-.38-.64,1.71,1.71,0,0,1,0-.31c0-.39,0-.81-.39-1a1.25,1.25,0,0,0-.43,0c-.4.11-.79.25-1.19.35L15.2,54a13.17,13.17,0,0,1-1.26-.72c-.11-1.11.05-1.35,1-1.28.46,0,.95-.16,1.37.16a.55.55,0,0,0,.5,0c-.14,0-.28,0-.42,0A3.69,3.69,0,0,0,14,52.07c-.54.14-.94.17-1-.51.42-.49.12-1.29.74-1.71-.69.27-.24,1.42-1.18,1.46a1.11,1.11,0,0,1-.93-.42l-.23-.11a1.75,1.75,0,0,1-.28-.47c-.63,0,.93-.26,0-.3-.64,0-1.33.2-1.93-.21a.68.68,0,0,1,.14-.68.88.88,0,0,1,1.25-.2c.22.15.29.12.44-.07s0-.29-.1-.44c-.69-.72-.87-.69-1.55.31-.31.23-.57.58-1,.4v0c-.14-.09-.3-.14-.39-.29a1.21,1.21,0,0,1-.11-.32,1.24,1.24,0,0,1,.14-.8c.25-.24.85-.18.66-.78.44-.7-.45-.54-.56-.89-.53.15-.6-.68-1.13-.53-.29-.17-.24-.42-.16-.67s0-.32-.23-.37-.4-.27-.62-.35c-.53.12-.84.66-1.4.69l-.08.24c-.58-.17-.89-1-.46-1.14.8-.25-.1-.59.15-.79-.09-.52-.36-.71-.86-.47a.61.61,0,0,1,.06-.61,2.91,2.91,0,0,0,.67-1.2c.16-.65,0-1.33.28-2,.2-.41-.19-.52-.55-.5a.91.91,0,0,1-1-.54,1.88,1.88,0,0,0-.22-.45.45.45,0,0,1,0-.7c-.1-.72.31-1.17.93-1.08,1,.15,1-.36.8-1a4.32,4.32,0,0,1,0-1c-.07-.13-.13-.25,0-.35-.19.07-.13.19-.06.32.08.47-.42.69-.46,1.11a.53.53,0,0,1-.42.21.66.66,0,0,1-.6-.64,1.44,1.44,0,0,0-.93-1.12.22.22,0,0,1,0-.3L2,32.6c.09-.53.47-.71.93-.8s.26-.57.29-.89a1.12,1.12,0,0,1,.1-.48A1.39,1.39,0,0,1,4,29.81c.36-.23.09-.49,0-.7-.17-.39-.24-.74.16-1l0-.1c.23-.36.69-.2,1-.42a.45.45,0,0,1,.62-.43c.54.17.6-.29.82-.55.62.17.57-.52.93-.7a3.53,3.53,0,0,0,1.24-.82c.15-.18.39-.48.52-.45,1.17.31,1.72-.78,2.6-1.12A1.12,1.12,0,0,0,13,23.13a1.89,1.89,0,0,1,1.2-.31c.58.06.52-.39.6-.74A.88.88,0,0,1,15,21.8c.22-.34.45-.58.92-.34s.56.05.5-.38.54-.41.71-.72a2.55,2.55,0,0,0,1-.87c.64-.23,1.21-.61,2-.24.39.19.93.08.56-.64-.1-.19-.28-.39-.15-.65a.4.4,0,0,0,.09-.22.35.35,0,0,1,.26-.34c.22-.27.56.73.72-.07a1.09,1.09,0,0,1,1-.9c.57.14.86-.37,1.28-.56a1.4,1.4,0,0,1,.3-.15,1.13,1.13,0,0,1,.32,0c.63.24,1.05-.33,1.59-.44.2-.09.24-.29.29-.47a.43.43,0,0,1,.34-.28c.2,0,.38,0,.39-.3a.38.38,0,0,1-.47.24c-.46-.28-1-.52-.57-1.21l.45-.59a6,6,0,0,1,1.64-.09,8.88,8.88,0,0,0,2.18.18,3.07,3.07,0,0,0,1.21-.64c.84,0,.91-.89,1.39-1.33a.67.67,0,0,1,.73.09,1,1,0,0,0,.21.06c-.05-.12-.2-.11-.27-.22,0-1.22,1.12-1.17,1.79-1.64.38-.57,1-.59,1.59-.67.48.18.59-.33.89-.49h.07c.42.16.89,0,1.3.22l.53-.73c.75-.35,1,0,.89.7.4,0,.34-.61.74-.67,1.11.12,2.32-.38,3.32.52.29.13,0,.49.27.66.66.55.92-.45,1.51-.39a3.94,3.94,0,0,0,1.38-.41c.51.12.34.46.26.78.07.81.07.81,1.2.27.69,0,.9-.75,1.5-.86a2.61,2.61,0,0,1,1.11.1c.48-.14.66-.74,1.21-.77.38-.16.82.1,1.18-.18h0c.4,0,.8.38,1.2,0h0c.2-.13.44-.21.5-.49a23.3,23.3,0,0,1,6-2.36c.19.08.46,0,.53.31,0,.1,0,0,.07,0,.41-.88,1.5-.71,2.05-1.36.08-.12.16-.25.23-.38.45-.31,1,.06,1.47-.24A.55.55,0,0,0,67,2.43c.48-.8,1.12-.55,1.71-.25s.83.4,1.23,0a.91.91,0,0,1,.58.14c.29.19.63.28.92.5.13.14.2.33.39.41A.62.62,0,0,0,72.44,3,7.5,7.5,0,0,1,73.29,2.13Z"/><path class="cls-3" d="M164.48,36.44c.28-.24-.08-.48,0-.72.48-.08.83-.9,1.44-.24.21.92.93,1,1.68,1,.26-.24-.16-.48,0-.72H169c-.38.46.19.28.29.42a10.25,10.25,0,0,1,.35,1.53.62.62,0,0,1-.37.51c-.91-1-1.49,0-2.17.39-.53.15-1-.27-1.56-.18.44.06.85.1,1,.57-.34,1-1.18.77-1.93.76-.15,0-.38-.13-.38.18a.76.76,0,0,0,.43.27.46.46,0,0,1,.19.2.79.79,0,0,1,0,.43c-.09.28,0,.58-.17.85l-.27.26a.54.54,0,0,1-.66.35.92.92,0,0,1-.22-.22c-.14-.26-.32-.49-.45-.75s-.15,0-.17.1.23.39.13.63a.56.56,0,0,1-.48.31.69.69,0,0,1-.4-.22c-.24-.25-.63-.13-.88-.36a.87.87,0,0,1-.13-.61.68.68,0,0,0-.21-.67,1.87,1.87,0,0,1-.28-.35c-.12-.42-.46-.43-.8-.43a.52.52,0,0,1-.33-.3c0-.27,0-.62-.48-.47-.9-.6-.16-1,.18-1.44a3.77,3.77,0,0,0,1.54-.79,1.55,1.55,0,0,1,2-.33c.17.21.09.42,0,.64s-.42.5,0,.75a1.11,1.11,0,0,0,.54,0c.24-.09.33-.31.44-.5a1.32,1.32,0,0,1,.16-.25C164.14,36.86,164.44,36.77,164.48,36.44Z"/><path class="cls-3" d="M151.48,17.19c.92-.49.1-1.27.31-1.87.29-.18.56-.38.86-.55s.27-.3.07-.5c-.91-.41-.91-.41-.64-1l.41-.34c.9-.33.79.41.92.88.79.38,1.19.91.7,1.79a1.38,1.38,0,0,1-.7,1.45c-.36.19-.77.05-1.14.18-.13.33-.33.1-.5.07S151.55,17.34,151.48,17.19Z"/><path class="cls-3" d="M174.48,34.74c-.34-.16-.53.36-.87.18a1.55,1.55,0,0,1-1.3-.31,2.73,2.73,0,0,1-.35-.33c-.23-.27-.58-.54-.29-.92s.65-.07,1,0a4.42,4.42,0,0,0-.2-.89c-.18-.38-.33-.8.15-1s.68.24.93.53a2.72,2.72,0,0,1,.36.62c0,.15.25-.07.11,0-.05-.53,0-1,.55-1.31a.94.94,0,0,1,.81.33.47.47,0,0,1,0,.51c-.14.16,0,.22.11.27.3.38-.1.3-.23.32-.3,0-.54.08-.42.47a.65.65,0,0,0-.28.58C174.14,34.09,175,34.41,174.48,34.74Z"/><path class="cls-3" d="M172.64,22.3c-.52.79-1.73.66-2.14,1.61-.08.18-.25.16-.4.08s-.17-.31,0-.46c.59-.61.43-.91-.29-1.33s-.41-1.11-.07-1.7c.26-.15.68.06.82-.36.46-.06.6.3.71.6a2.26,2.26,0,0,0,1,1.06A1.17,1.17,0,0,1,172.64,22.3Z"/><path class="cls-3" d="M124.78,52.72a1.23,1.23,0,0,0-1.35.34.48.48,0,0,1-.29-.5c0-.24.2-.45.17-.7s-.36-.43-.62-.56-.28-.19-.25-.39c.35-.46.83-.36,1.29-.29.3-.18.6.87.9,0,.27-.31.69-.34,1-.54s.6-.45,1-.2.27.68.17,1.07c0,.55-.49.8-.81,1.15A3.94,3.94,0,0,1,124.78,52.72Z"/><path class="cls-3" d="M15.44,53.91c.37-.26.67-.64,1.17-.68.16.19.33.36.51,0,.79.28.65.86.48,1.44,0,.09-.23.1-.14.24s.13,0,.2,0c.26.17.24.41.2.66-.21,0-.45,0-.52.27s-.36.44-.7.31c-.6.06-1.19-.58-1.81-.06-.36-.72.24-1,.62-1.4.34-.12.72-.29.63-.7S15.66,54,15.44,53.91Z"/><path class="cls-3" d="M175.34,31.67l-.8-.27c-.79-.26-.69-.82-.48-1.41a.2.2,0,0,1,.37,0c0-.21-.2-.18-.33-.2-.5-.06-.72-.41-.86-.84a1.1,1.1,0,0,1,0-.31c.14-.52.49-.45.87-.31a.4.4,0,0,0,.15,0c.36.09.37.47.58.69h0c.27.1.57.14.73.43-.2.9.75,1.45.71,2.31C175.88,32.28,175.62,31.82,175.34,31.67Z"/><path class="cls-3" d="M174.07,28.29c-.2.21-.59,0-.74.3-.17,0-.26-.09-.21-.27.06-.44-.55-.56-.48-1h0c.7-.08.58-.85,1-1.19a.65.65,0,0,1,.11.63c0,.15.24-.07.09,0s-.12,0-.07-.08c.38-.69.1-1.79,1.26-2,.18-.2.35-.25.49,0a1,1,0,0,1,.24,1.11C174.66,26.29,174.39,27.3,174.07,28.29Z"/><path class="cls-3" d="M149.81,51.08l-.48.42a.34.34,0,0,1-.2.22.69.69,0,0,1-.32,0,.87.87,0,0,1-.27-.14,6.55,6.55,0,0,0-.49-.56,3.2,3.2,0,0,0-.52-.27.73.73,0,0,1-.43-.62c0-.23.22-.48,0-.69-.62,0-.86-.26-.8-.85s.42-.62.79-.76l.44-.16c.24-.09.43-.31.71-.26a.7.7,0,0,1,.48.73c0,.23-.74,0-.36.55,0,.49.44.65.77.88-.09.8-.09.8.56.94C149.81,50.67,150,50.83,149.81,51.08Z"/><path class="cls-3" d="M1.76,33.07a6,6,0,0,1,.45,3.6c-.54.07-.7-.39-1-.69s-.67.43-.89-.14c0-.15-.07-.16-.18-.14-.29-.77-.24-.83.64-.7.34-.18.82-.41.45-.82-.78-.88-.06-1,.52-1.31A.14.14,0,0,1,1.76,33.07Z"/><path class="cls-3" d="M74,53.51a.68.68,0,0,1,0-.81c.26-.11.5,0,.74.06s.67-.17.89.2a2.89,2.89,0,0,1,.59.92.91.91,0,0,1,.06.32.71.71,0,0,1-.35.55.28.28,0,0,1-.3-.06c-.28,0-.6-.15-.75.23-.5.39-1.12,0-1.63.27-.41-.09-1.12,1.27-1.25-.25,0-.54.44-.45.75-.56s.45-.08.68-.09C74,54.26,74.49,54.22,74,53.51Z"/><path class="cls-3" d="M26.29,15.54c-.69-.14-1.17,1.21-2,.28a9.22,9.22,0,0,0,.14-1.66c0-.64.3-.76.83-.53.38.13.39-.47.75-.38-.06.56.43.77.7,1.13a.17.17,0,0,1,0,.25l-.21.18C26.23,15,26.49,15.33,26.29,15.54Z"/><path class="cls-3" d="M148.16,47.48l-.48.48c-.2-.21-.41-.42-.28-.76.55-.42,1-.9,1.87-.6a5,5,0,0,1,2.22,1.25c.29.47-.46.76-.21,1.23a1.35,1.35,0,0,1,0,.28l0,.47c-.61,0-1,.72-1.62.62a.45.45,0,0,1-.18-.47c.12-.31.35-.57.47-.89.31-.65.56-1.25-.62-1.12C148.89,48,148.64,47.44,148.16,47.48Z"/><path class="cls-3" d="M157.67,46.49h-.08l-.08,0c-.31.31-.91-.08-1.12.46-.24.15-.54.28-.76.12-.55-.4-.83,0-1.16.31a.73.73,0,0,1-1.08-.18,2.71,2.71,0,0,1,1.87-1.57,2,2,0,0,1,.49-.11l.33-.06a6.53,6.53,0,0,0,1.13-.38,1.6,1.6,0,0,1,1.23.13C158.66,45.94,158.07,46.16,157.67,46.49Z"/><path class="cls-3" d="M3.44,30.44c0,.17,0,.35,0,.53-.83.42-.72-.37-.94-.73l-.35-.44c.92-.29,1-1.6,2.05-1.72-.2.6.24,1.05.39,1.56.21.74-.22.35-.47.29C3.69,29.85,3.62,30.22,3.44,30.44Z"/><path class="cls-3" d="M30.32,12.92c-.66.09-1.39.62-1.92-.25-.08,0-.11-.09-.1-.14s0-.09.07-.09c.64-.53,1.5-.74,2-1.49.26-.4.48.07.65.29.67.57-.08.63-.31.88S30.56,12.71,30.32,12.92Z"/><path class="cls-3" d="M37.31,54.67c.14,0,.22,0,.21.2a3.3,3.3,0,0,1,.36.73c0,.44-.22.95.36,1.23l-.21.73a1,1,0,0,1-.91.43,1.3,1.3,0,0,1-.32-.14l-.49-.32c-.18-.13-.51-.16-.45-.47s.49-.11.7-.27a1.94,1.94,0,0,0,.14-1.14C36.65,55.18,36.76,54.79,37.31,54.67Z"/><path class="cls-3" d="M131.59,6c.46-.33.11-.82.25-1.21.54-.37,1-.45,1.45.19,0,.73-.55.74-1.06.84A5.14,5.14,0,0,0,133,7.14a.41.41,0,0,1-.21.67c-.3.09-.45-.11-.45-.38,0-.44-.4-.67-.51-1C131.65,6.31,131.53,6.21,131.59,6Z"/><path class="cls-3" d="M33.45,52c.83-.34.26.68.7.72a1.28,1.28,0,0,1-.52,1.89c-.57,0-1.11,0-1.3-.69a3.15,3.15,0,0,1,.19-1,.73.73,0,0,1,.32-.35c.19-.08.47,0,.48-.37A.41.41,0,0,1,33.45,52Z"/><path class="cls-3" d="M164.47,39.34a1.42,1.42,0,0,0,1.94-.51.43.43,0,0,1,.29-.08,5,5,0,0,1,.77.16,1.09,1.09,0,0,1,.74.85A.28.28,0,0,1,168,40c-.17,0-.37,0-.45.22-.64-.26-1,.62-1.65.4-.36-.29-.8-.18-1.21-.27a.24.24,0,0,1,0-.12.87.87,0,0,1-.36-.48A.44.44,0,0,1,164.47,39.34Z"/><path class="cls-3" d="M172.38,34.47c.47,0,.82.29,1.23.45l-.22.33c-.09.4,0,.84-.35,1.17-.55-.26-.66.21-.87.53a.83.83,0,0,1-.4-.73c-.15-.17.35-.62,0-.5-1.07.33-.93-.27-.86-.9A2.44,2.44,0,0,1,172.38,34.47Z"/><path class="cls-3" d="M30.57,11.94c.09-.28.82-.13.47-.7.46.09.19-.47.47-.53s0-.61.48-.4h0c.28.21.67,0,.94.26a.36.36,0,0,1,.1.3c-.42.54-.22,1.77-1.5,1.35C31.16,12.25,30.71,12.62,30.57,11.94Z"/><path class="cls-3" d="M49.49,56.74c.19-.66,1.13-1,.74-2,.58.36.23,1.38,1.13,1.27.39,0,.29-.4.32-.66.2-.22.41-.42.75-.29l.22.3a1.41,1.41,0,0,1,0,1.19l-.06.06,0,.08a.17.17,0,0,1-.2.16c-.18-.11-.23-.41-.52-.37s-.44.09-.66.15l-.27.08c-.17,0-.36,0-.54.06A1.74,1.74,0,0,1,49.49,56.74Z"/><path class="cls-3" d="M138.41,46.47c-.84.07-.11.73-.37,1-.29.06-.39-.19-.57-.32a2.78,2.78,0,0,0-.49-.24,1,1,0,0,1-.24-.17,2,2,0,0,1-.48-.57,1.1,1.1,0,0,1,0-.31c.39-.69,1.15-.6,1.76-.82a1.74,1.74,0,0,1,.64.08.55.55,0,0,1,.23.2c0,.3-.12.58-.12.88S138.61,46.5,138.41,46.47Z"/><path class="cls-3" d="M172.17,22.05c-1-.21-1-1.34-1.63-1.91l-.2-.5c.16-.2.32-.38.62-.24-.13.61.14,1.05.7.72s1,0,1.41,0c0,0,.1.06.09.07C172.93,20.88,172.36,21.37,172.17,22.05Z"/><path class="cls-3" d="M97.75,51.57a2.24,2.24,0,0,1,1.47,1c-.41.3-.94.24-1.35.7s-.87,0-1.13-.47C96.74,52.07,97.43,52,97.75,51.57Z"/><path class="cls-3" d="M2.48,40.24c.07.09.19.15.23.25.38,1.16.58,1.24,1.47.55,0,.54-.45.82-.75,1.18-1.62.25-1.83.08-1.62-1.23C1.82,40.55,2.25,40.48,2.48,40.24Z"/><path class="cls-3" d="M146.49,13.64H146a1.16,1.16,0,0,1-.47-1.37.66.66,0,0,1,.26-.29,1.41,1.41,0,0,1,1.62,0,.72.72,0,0,1,0,1.2c-.33-.12-.31-.69-.82-.62l-.15,1.11Z"/><path class="cls-3" d="M106.88,50.6c.5-1,1.46-1,2.36-1.1.27,0,0,.29,0,.45-.28.49-.84.18-1.21.4l-.47.39a.78.78,0,0,1-.74.8l-.4,0c-.26.15-.47.12-.6-.17C105.84,50.7,106.45,50.77,106.88,50.6Z"/><path class="cls-3" d="M118.14,54.38c-.18,0-.42.12-.5-.1a.45.45,0,0,1,.2-.59l.26-.18c.43-.1.5-.46.59-.81s.34-.56.73-.52.22.51.43.7a.56.56,0,0,1,.19.35c-.12.45.35,1.59-.89.72C119,53.84,118.48,54.22,118.14,54.38Z"/><path class="cls-3" d="M171,19.4l-.62.24a1.61,1.61,0,0,1-.1-1.68.33.33,0,0,1,.25-.27c.43.19.56.85,1.18.76.27.17.57.34.17.68Z"/><path class="cls-3" d="M31.23,52.5a.33.33,0,0,1,0,.17c-.12,0-.32,0-.33.09-.36,1.48-1.27,1.15-2.22.69,1.42,0,1.42,0,.95-1.7.09-.18.2-.31.43-.19C30.35,52,30.6,52.48,31.23,52.5Z"/><path class="cls-3" d="M101.13,51.82c.4-.59,1.19.12,1.5-.46.61,0-.71,1.24.58.69.23-.12.39,0,.38.2s-.24.43-.54.29-.68.12-1,.29l-.08-.07c-.11,0-.1,0,0,.12s-.15.11,0,.12c-.08.45-.43.35-.73.35a.57.57,0,0,1-.43-.45A3.77,3.77,0,0,1,101.13,51.82Z"/><path class="cls-3" d="M122.49,51.05l.47,0a1.1,1.1,0,0,1,0,.87c-.06.14-.12.27-.19.4a.74.74,0,0,0-.08.39.5.5,0,0,1,0,.27c.2.64-.21.57-.61.52s-.44-.15-.63-.3a.84.84,0,0,1-.18-.24c0-.32.18-.55.27-.83a3,3,0,0,1,.17-.41,3.52,3.52,0,0,1,.55-.72A.33.33,0,0,1,122.49,51.05Z"/><path class="cls-3" d="M90.78,2.61l-.65-.23c-.23-.07-.31-.26-.38-.47a1,1,0,0,1,0-.3,2.38,2.38,0,0,0-.15-.75c0-1,.85-.25,1.21-.53a1.51,1.51,0,0,0,.5,1.32C91.44,2.14,91.22,2.43,90.78,2.61Z"/><path class="cls-3" d="M141.41,9.81c-.59,0-.61.46-.67.93a4.58,4.58,0,0,1-1-1.37.92.92,0,0,1,.51-.9.62.62,0,0,1,.67.15l.18.25C141.39,9.13,141.74,9.37,141.41,9.81Z"/><path class="cls-3" d="M4.07,43.15c.08.26.83.37.11.84a.65.65,0,0,0,.2,1.09c.26.24.52.47,0,.74A.55.55,0,0,0,3.7,46C2.93,44.92,3.29,44,4.07,43.15Z"/><path class="cls-3" d="M33.63,11,33,10.86a1,1,0,0,1-.08-.14c-.25-.83.34-1.2.87-1.6.53.35,1-.11,1.56,0l-1.68,1.68C33.76,10.85,33.74,10.94,33.63,11Z"/><path class="cls-3" d="M53.6,54.68c.55-.46,0-1,.1-1.52,1.28-.5,1.2.67,1.59,1.24a1.23,1.23,0,0,1-.23.75c-.33.13-.67-.47-1,0Z"/><path class="cls-3" d="M139.76,52c.66-.57.25-1.88,1.44-2.08l.1.12c.07.33-.19.58-.2.89s0,.5,0,.76a3,3,0,0,1-.24,1.06c-.31.28-.7.08-1,.17a.36.36,0,0,1-.26-.14C139.22,52.37,139.45,52.16,139.76,52Z"/><path class="cls-3" d="M115.78,49.64l.51-.21c.53,0,.91-.37,1.39-.48a2,2,0,0,1,1,0,.76.76,0,0,1,.27.2.73.73,0,0,1-.54,1c-.46,0-.92,0-1.38,0a1.66,1.66,0,0,1-.55-.27c-.54-.26-.65.4-1,.48-.27-.23.14-.38.08-.58S115.55,49.55,115.78,49.64Z"/><path class="cls-3" d="M20,55.63c.29-.8,1-.9,1.69-.94a2.12,2.12,0,0,1-1.07,1.88.82.82,0,0,1-.62.3.65.65,0,0,1,0-.94Z"/><path class="cls-3" d="M42.8,58.54l-.72.46h0c-.19.51-.42.88-1,.31-.19-.09-.46,0-.57-.3-.38-.45-.41-.81.27-.9.34,0,.72.08,1-.28C42.19,58,42.62,58.08,42.8,58.54Z"/><path class="cls-3" d="M90.57,51.32a.83.83,0,0,1,.73-.22.64.64,0,0,0,0,.2c-.26.48,0,.58.42.64s.61.19.23.56a3.8,3.8,0,0,0-.83,0c-.43.11-.84.3-1.1-.27S90.26,51.56,90.57,51.32Z"/><path class="cls-3" d="M72.57,3.05c0,.68-.52.51-.93.5-.31-.33-.1-.62,0-.94s0-.52-.33-.54A.81.81,0,0,1,70.9,2c-.17-.27,0-.4.21-.49l.49-.07c.45,0,1.18-.64,1.17.48-.24.08-.22.18,0,.3C73.2,2.57,72.65,2.76,72.57,3.05Z"/><path class="cls-3" d="M62,49.86c.88-.68,1,.43,1.46.64,0,.06,0,.11-.05.16-.49.16-.86.42-.82,1a.51.51,0,0,1-.1.29l-.25.1c-.55.31-.6-.42-1-.46-.12-.33.14-.53.26-.78h0A1.3,1.3,0,0,0,62,49.86Z"/><path class="cls-3" d="M114.09,47.91c-.35,0-.61.09-.47.53a.51.51,0,0,1-.34.25h-.15l-.25-.06c0-.23,0-.46-.24-.63-.84-.57-.24-.65.27-.75.2.1.24,0,.25-.18.56-.47.51-.45.74.18A3,3,0,0,1,114.09,47.91Z"/><path class="cls-3" d="M176.39,20.34c-.91.11-.86-.69-1.13-1.18-.12-.25-.23-.51.11-.69.58-.1.79.4,1.12.69C176.59,19.57,176.77,20,176.39,20.34Z"/><path class="cls-3" d="M88.87,51.56c-.44.09-.63-.07-.89-.48s-.22.12-.3.25c-.63,0-.66,0-.4-.93a.58.58,0,0,1,.62-.3c.27.37.32,1.14,1.07.34a.9.9,0,0,1,1.37.33,4.88,4.88,0,0,0-1.15.11C89,51,88.42,51.07,88.87,51.56Z"/><path class="cls-3" d="M167.42,39.05c-.28,0-.58.09-.79-.18.08-.27.37-.32.51-.53a2,2,0,0,0,.35-.3c.84-1.1,1-1.1,1.74.06a.44.44,0,0,1,0,.2c-.18,0-.39,0-.5.21s-.05.18-.16.17-.27-.27-.44,0a1.28,1.28,0,0,1-.35.26A3.34,3.34,0,0,1,167.42,39.05Z"/><path class="cls-3" d="M173.63,21c.06-.27.57-.25.43-.66.39-.46.78-.36,1.16,0,.23.38.41.74-.17,1-.42-.13-.66.05-.77.45C174.21,21.43,173.51,21.56,173.63,21Z"/><path class="cls-3" d="M118.42,2.36c-1.3-.08-1.1-.83-.75-1.65.25,0,.35-.06.52-.28.38-.5.44-.09.45.25a.78.78,0,0,1,0,.93C118.54,1.84,118.54,2.12,118.42,2.36Z"/><path class="cls-3" d="M12.29,51.8c.21-.23.31.06.46.1a1.67,1.67,0,0,1,.61,1.52c-.11.25-.41.13-.57.29C11.45,53.37,12,52.55,12.29,51.8Z"/><path class="cls-3" d="M122.16.94c-.17.11-.82,0-.21.45.33.24.68.54.59.9s-.55.61-1,.55c-.14-.4.1-.84-.13-1.23,0-.32-.75-.25-.4-.6S121.74.37,122.16.94Z"/><path class="cls-3" d="M37,57.82l1-.26c.41.12.66.65,1.19.49.08.28.34.58,0,.83-.54.36-.85-.14-1.23-.36C37.8,58.08,37.08,58.39,37,57.82Z"/><path class="cls-3" d="M87.5,50.37c.33.27-.8.82.18,1,0,.29.25.86-.48.58-.51-.18-1,.41-1.48.09.24-.09.59-.13.68-.3s-.26-.3-.41-.46a1,1,0,0,1,.08-.34c.17-.25.46-.34.69-.51S87.24,49.73,87.5,50.37Z"/><path class="cls-3" d="M20,55.93c0,.32,0,.63,0,.94s-.42.14-.51.38c-.29.36-.63.06-.94.07-.69-.31-.27-.62,0-.94s.83,0,1.17-.26Z"/><path class="cls-3" d="M41.37,7.44c-.17.92-.17.92-1.21,1.12-.43-.27,1-1.24-.42-1.15C40.3,6.58,40.83,7.26,41.37,7.44Z"/><path class="cls-3" d="M147.1,52.73l-.08,0-.06.06c-.24.2-.58,0-.83.21s-.57.19-.74-.18.22-.68.64-.74.29-.26.16-.49.16-.38.36-.47a.71.71,0,0,1,.79.06c.43.46.61.93,0,1.41A.71.71,0,0,1,147.1,52.73Z"/><path class="cls-3" d="M35.78,53.49l.47,1.64c-.32-.12-.62.48-.94,0A1,1,0,0,1,35.1,54c.09-.24.18-.5.51-.48C35.67,53.4,35.72,53.39,35.78,53.49Z"/><path class="cls-3" d="M151.36,49.37c.29-1.13,1-.78,1.64-.44-.32,1.08-1,.7-1.67.43Z"/><path class="cls-3" d="M88.13,1.89l-.26,0A1.37,1.37,0,0,0,87.2.89c-.32-.81.28-.67.64-.54s.55.44.82.67,0,.65-.22.92A.27.27,0,0,1,88.13,1.89Z"/><path class="cls-3" d="M22.61,16.53c-.58.07-.61.63-.86,1a.64.64,0,0,1-.08-1c-.19-.67.9-.06.72-.72a.4.4,0,0,1,.49-.31l.51-.05a.48.48,0,0,1,.27.54C23.31,16.16,23.14,16.7,22.61,16.53Z"/><path class="cls-3" d="M98.69,7.36c-1,1.11-1.71-.13-2.54-.39l-.1-.06,0-.11.48-.18c.51.08.18-1.12,1-.64-.4,1.14-.33,1.33.48,1.18A.92.92,0,0,1,98.69,7.36Z"/><path class="cls-3" d="M14.21,23a2,2,0,0,0-1.61.73c-.6.68-.56,0-.75-.26.17-.6,1-.28,1.2-.78a2.92,2.92,0,0,1,1.14,0A.22.22,0,0,1,14.21,23Z"/><path class="cls-3" d="M171.92,36.21l.25.74.18.23c.21.13.19.29.05.45a1.52,1.52,0,0,1-1-.17c-.17-.43-.39-.76-.92-.46-.2-.34.06-.41.28-.51.52.3.35-.41.64-.43A.46.46,0,0,1,171.92,36.21Z"/><path class="cls-3" d="M64.65,3.23c-.45.9-1.51.93-2.17,1.53h0L62,4.32l1.2-.54c.36-.22.56-.68,1.06-.67Z"/><path class="cls-3" d="M159.43,44.82l-.89.07-.13-.09a.47.47,0,0,1,0-.47c.19-.19.46-.27.66-.45a1.28,1.28,0,0,1,1.51-.39.68.68,0,0,1,.34.37c0,.47-.38.45-.68.55s-.42,0-.56.2Z"/><path class="cls-3" d="M.59,37.54c.38-.53.76-.52,1.06,0,.14.26.09.66.57.55.11.41.09.73-.46.72l-.06-.06-.08,0C1,38.61,1.11,37.82.59,37.54Z"/><path class="cls-3" d="M119.4,1.39c.26.05.59-.14.73.25a1.46,1.46,0,0,1,.34.54,1.11,1.11,0,0,1-.19.79.58.58,0,0,1-.27.19,3,3,0,0,1-1.24-1.31.69.69,0,0,1,0-.35A.39.39,0,0,1,119.4,1.39Z"/><path class="cls-3" d="M11.56,51.79c-.71,1.39-.92.15-1.46-.25l1.22-.44C11.62,51.25,11.9,51.41,11.56,51.79Z"/><path class="cls-3" d="M134.72,48.68l-.63,0c-.31-.32-.75-.35-1.12-.53-.22-.16-.26-.34,0-.53a1.55,1.55,0,0,1,.79-.23c.27,0,.53.08.81.09l.33,0C135.71,48,134.86,48.3,134.72,48.68Z"/><path class="cls-3" d="M62.49,52a.08.08,0,0,1,0-.11c0-.65.52-.91,1-1.24l0-.11.7.51-.48.77c-.25.3-.41.78-1,.52Z"/><path class="cls-3" d="M91.47,3.52c.48-.54-.29-1.32.34-1.84.55.2.45.79.71,1.16a.16.16,0,0,1,0,.26h0c0,.2-.79,0-.27.48Z"/><path class="cls-3" d="M2.25,31.14l.1.49c-.41.54-1,.27-1.55.42-.21-.15-.34-.57-.28-.58.44-.06.66-.68,1.19-.47A4.75,4.75,0,0,0,2.25,31.14Z"/><path class="cls-3" d="M136.33,48.42a.71.71,0,0,0-.61-.25.5.5,0,0,1-.37-.65c.32-.28.63-.58.92-.89a.54.54,0,0,1,.62.14l0,0A1.23,1.23,0,0,1,136.33,48.42Z"/><path class="cls-3" d="M12.79,53.71l.49-.23A.84.84,0,0,1,14,53.2c.58,0,.88.37,1.16.79A8.16,8.16,0,0,1,12.79,53.71Z"/><path class="cls-3" d="M133,47.73c-.15.16-.1.24.1.26,0,.39-.42.27-.6.44-.42-.38-.74-.32-1,.19-.27.14-.42,0-.56-.2a.67.67,0,0,1,.05-.63c.3-.22.68-.19,1-.33a1.94,1.94,0,0,1,.79-.1C133,47.44,133.14,47.53,133,47.73Z"/><path class="cls-3" d="M175.5,22.29c.46-.5.57,0,.68.27.18.54-.22.93-.43,1.37A1.15,1.15,0,0,1,175.5,22.29Z"/><path class="cls-3" d="M73,54.67c-.33,0-.72-.12-.95.27-.91-.63-.2-.89.27-1.2a.14.14,0,0,1,.24,0c0,.13.09.21.25.19C73.33,54.05,73.26,54.33,73,54.67Z"/><path class="cls-3" d="M23.6,55.8c1-.68.2.69.69.62-.34.52-.84.46-1.37.38C22.88,56.27,23.36,56.11,23.6,55.8Z"/><path class="cls-3" d="M48.08,58.76c-.12-.51.22-.83.5-1.17l.26.2c.17-.16.37-.34.62-.23s.2.3,0,.48c-.36.15-.88.14-.88.7,0,.3-.19.17-.28.17S48.17,58.82,48.08,58.76Z"/><path class="cls-3" d="M83.06,54c-.11.39.67.76.06,1.14a.46.46,0,0,1-.63-.16c-.25-.38-.43-.77.16-1C82.8,53.84,83,53.81,83.06,54Z"/><path class="cls-3" d="M31.46,53.24a4.46,4.46,0,0,1,.35-.73c.41-.55.53-.2.61.21A4.68,4.68,0,0,1,32.2,54a.59.59,0,0,1-.2.24C31.13,54.28,31.53,53.62,31.46,53.24Z"/><path class="cls-3" d="M27.45,55.41a1.14,1.14,0,0,0-.1.19c-.7.49-1.37,1.07-2.31.52-.06-.23.14-.33.25-.48s.24-.36.5-.32a1.21,1.21,0,0,0,1.05-.09A.59.59,0,0,1,27.45,55.41Z"/><path class="cls-3" d="M9.18,49.6a1.18,1.18,0,0,0,1.21.25c.8-.15,1.06.18,1,.93-.71-.76-1.68-.67-2.59-.78a.53.53,0,0,1,0-.11A.34.34,0,0,1,9.18,49.6Z"/><path class="cls-3" d="M70.59,52.76c-.15-.46-1,.49-.9-.42a.78.78,0,0,1,.94-.81c-.2.54.49.94.25,1.49Z"/><path class="cls-3" d="M148.66,51.55h.46c.15.48.69.24.95.52a1,1,0,0,1-1.44.48C147.89,52.2,148.36,51.88,148.66,51.55Z"/><path class="cls-3" d="M139.27,54l-.25-.26c-.09-.4.33-.35.48-.54a3.74,3.74,0,0,1,1.11-.09,1,1,0,0,1,.41.24,1.2,1.2,0,0,1,.29.38.44.44,0,0,1-.17.54.48.48,0,0,1-.29,0,1.84,1.84,0,0,0-.84-.14C139.77,54,139.49,54.14,139.27,54Z"/><path class="cls-3" d="M62,53.81c-.17-.27-.7-.48-.37-.84s.69.15,1.06.11c.09,0,.12,0,.11.08s0,.08-.06.08l0,.24c.11.15.35.23.19.48h0A.71.71,0,0,1,62,53.81Z"/><path class="cls-3" d="M145.46,13.18c-.29,0-.73-.19-.7-.34.24-1.13-.62-.75-1.12-.87,0-.66.42-.27.68-.28l.48,0c.48-.3.55.15.74.4A1.67,1.67,0,0,1,145.46,13.18Z"/><path class="cls-3" d="M168.67,15.59l.22.05c.42,0,1,0,.92.58s-.64.17-1,.29C168.69,16.22,168.18,16,168.67,15.59Z"/><path class="cls-3" d="M87,1.8c-.16.33.72.56.11.89a.63.63,0,0,1-.94-.17c-.44-.71.67-.36.55-.84l.27,0Z"/><path class="cls-3" d="M32,54.19a.14.14,0,0,1,0-.14c.12-.28.31-.22.5-.08.13.66.94.16,1.15.68a.42.42,0,0,1-.19.5l-.15,0a1.16,1.16,0,0,1-.81-.19Z"/><path class="cls-3" d="M5.61,45.56a2.11,2.11,0,0,1,.44-1.66l.5.46a.29.29,0,0,1,.12.27,1.56,1.56,0,0,1-.33.7l-.24.24A.33.33,0,0,1,5.61,45.56Z"/><path class="cls-3" d="M.8,32.05a4,4,0,0,1,1.55-.42c.16.4.69.12.88.46-.46,0-.94,0-1.24.51A1.65,1.65,0,0,0,.8,32.05Z"/><path class="cls-3" d="M169,18c-.68.25-.87-.39-1.25-.69-.09-.46,0-.71.54-.5A1.4,1.4,0,0,1,169,18Z"/><path class="cls-3" d="M6.8,47.94c.54,0,.68.65,1.18.71l0,.26a1.08,1.08,0,0,1-1,.06C6.64,48.71,6.38,48.4,6.8,47.94Z"/><path class="cls-3" d="M140.94,8.62h-.63c-.29,0-.54-.1-.62-.43a.5.5,0,0,1,.41-.39c-.15,0-.29.06-.44.07A.89.89,0,0,1,139,7.7a.29.29,0,0,1,0-.32l1.29.07a.34.34,0,0,1,.41.21C140.27,8.08,140.93,8.29,140.94,8.62Z"/><path class="cls-3" d="M113.67,49.61c-.2-.32.14-1-.57-1,.13-.2.33-.17.52-.19.51.11,1,.26.93.92Z"/><path class="cls-3" d="M164.69,41.65c-.2-.29-.37-.57,0-.84s.59-.35.88,0a.65.65,0,0,1,.12.91Z"/><path class="cls-3" d="M121.74,51.86v.44c-.39.17-.59.56-.92.79a2.9,2.9,0,0,0-.6.12.41.41,0,0,1-.19,0l-.16-.21c.25-.38.35-.85.74-1.13C121,51.78,121.36,51.6,121.74,51.86Z"/><path class="cls-3" d="M75.67,54.69a.63.63,0,0,1,.19,0c.17.11.56-.25.54.25,0,.66-.57.73-1,1l-.13,0C75,55.34,75.75,55.15,75.67,54.69Z"/><path class="cls-3" d="M175.75,25.83a1.8,1.8,0,0,1-.24-1.11c.62-.19,1.1-.19.94.69-.13.18-.22.41-.46.49Z"/><path class="cls-3" d="M109.08,51.16c.15-.46.72-.2.94-.55h.46c.35.62-.4.61-.53.95C109.54,51.68,109.16,51.75,109.08,51.16Z"/><path class="cls-3" d="M54.07,55.18c.07-.29,0-.63.17-.89.51.13.4.73.81.87l.05.15c-.16.24-.44.3-.66.44s-.45,0-.41-.34Z"/><path class="cls-3" d="M45.21,59c.53.09.61-.85,1.23-.52,0,.8-.45,1-1.15.94C44.91,59.41,45.22,59.18,45.21,59Z"/><path class="cls-3" d="M103,5.25a1.06,1.06,0,0,0-1.13-.48c.11-.48.69-.41.92-.76.11-.08.19-.06.24.08,0,.34.33.43.48.65C103.42,5,103.31,5.2,103,5.25Z"/><path class="cls-3" d="M94.13,2.54c-.42.36-.1.87-.23,1.28-.27,0-.6.18-.68-.27.23-.28-.09-.7.25-.95l-.08-.25a1.06,1.06,0,0,1,.18-.71C93.76,1.94,94.13,2.12,94.13,2.54Z"/><path class="cls-3" d="M131.11,50.65c.08.76-.73.25-.9.63a.8.8,0,0,1-.63-.69.56.56,0,0,1,.09-.31.77.77,0,0,1,.76-.21C130.49,50.46,130.9,50.43,131.11,50.65Z"/><path class="cls-3" d="M137.78,7.2c-.58,0-.64-.6-.9-1,.42.21.47-.38.77-.41.32.35-.24.8.18,1.1C137.91,7.05,137.9,7.13,137.78,7.2Z"/><path class="cls-3" d="M20.48,16.49c.92-.06.62.51.51,1l-.41.27C20.29,17.35,20,17,20.48,16.49Z"/><path class="cls-3" d="M172.42,19.16c-.15-.43-.46-1,.16-1.16.34-.09.7.39.51.91Z"/><path class="cls-3" d="M59.36,53c.18-.46.56-.5,1-.47.08,0,.1.11.07.15s0,.08-.08.08l-.47.55c-.12.2,0,.54-.32.63A.68.68,0,0,1,59.36,53Z"/><path class="cls-3" d="M24.05,14.85c-.22.41.09.67.26,1l-.25.26c-.24.08-.34-.07-.43-.24a.41.41,0,0,1-.24-.39C23.59,15.22,23.2,14.34,24.05,14.85Z"/><path class="cls-3" d="M35.78,53.49l-.08,0-.09,0,.24-.59.26-.63c.48,0,.71.36,1,.68a.3.3,0,0,1,0,.29.49.49,0,0,0-.26.5C36.54,53.31,36.23,53.14,35.78,53.49Z"/><path class="cls-3" d="M141,55.16l-.5.29c-.42,0-.3-.36-.44-.54s-.32-.31,0-.48a.64.64,0,0,1,.68-.14.82.82,0,0,1,.4.36A.46.46,0,0,1,141,55.16Z"/><path class="cls-3" d="M142.37,55.9l.09-.74c.2-.31.49-.49.8-.29s0,.57,0,.85-.16.61-.59.44Z"/><path class="cls-3" d="M51.89,57.4c-.1.41-.24.72-.74.4-.14-.39-.52-.75-.18-1.21l0,0C51.58,56.49,51.76,56.91,51.89,57.4Z"/><path class="cls-3" d="M86.21,1.18a2.13,2.13,0,0,1-1.6-.25C85.29.05,85.7.9,86.21,1.18Z"/><path class="cls-3" d="M54.07,56.83c-.29,0-.66.14-.83-.14s.29-.47.38-.74.3-.2.48-.07c0,.16,0,.33,0,.49A.33.33,0,0,1,54.07,56.83Z"/><path class="cls-3" d="M75.28,55.88l.06-.06.07,0c0,.17,0,.34.08.5s.25.22.22.4-.14.16-.27.09-.57.41-.71-.13S74.86,56,75.28,55.88Z"/><path class="cls-3" d="M100.18,53.24c0-.24-.27-.53,0-.72s.5,0,.69.18l.22.5c0,.2-.19.21-.32.25S100.32,53.49,100.18,53.24Z"/><path class="cls-3" d="M137.78,7.2l.05-.26c.4.18,1.06-.37,1.22.44v.24a.58.58,0,0,1-.48.24c-.47,0-.59-.35-.76-.66Z"/><path class="cls-3" d="M140.75,7.66l-.41-.21c0-.26-.24-.56.13-.72A.34.34,0,0,1,141,7C141,7.22,141.34,7.57,140.75,7.66Z"/><path class="cls-3" d="M56.71,53.58c-.09-.36-.63-.49-.51-1,.52.08.66.85,1.26.71C57.38,53.76,57.07,53.72,56.71,53.58Z"/><path class="cls-3" d="M143.12,55.64c.33-.91-.24-.59-.66-.48h-.1a.38.38,0,0,1,0-.36.94.94,0,0,1,1.5,0,.3.3,0,0,1,0,.35l-.49.5Q143.23,55.8,143.12,55.64Z"/><path class="cls-3" d="M139.51,47.94c-.2-.1-.7.09-.44-.46a.57.57,0,0,1,.27-.59.65.65,0,0,1,.51,0c.39.49.5.87-.34.88A.07.07,0,0,0,139.51,47.94Z"/><path class="cls-3" d="M139.3,47.06c0,.18,0,.36-.23.42-.4-.22-.92-.37-.66-1l.16-.25a.39.39,0,0,1,.43,0A1.77,1.77,0,0,1,139.3,47.06Z"/><path class="cls-3" d="M161.6,43.44c-.26-.09-.24-.21,0-.33a1.13,1.13,0,0,1,1-.57c.3.09.56.2.44.6Z"/><path class="cls-3" d="M163.79,42.2l.63-.29c.34.91-.57.7-.9,1a.55.55,0,0,1-.16-.32C163.4,42.36,163.41,42.08,163.79,42.2Z"/><path class="cls-3" d="M172.38,17c-.51.19-.74-.4-1.18-.43C172,16.06,172.26,16.15,172.38,17Z"/><path class="cls-3" d="M155.6,15.81c0,.25.07.67-.3.62a2,2,0,0,1-.92-.56s.32-.08.5-.1Z"/><path class="cls-3" d="M60.32,52.76a.6.6,0,0,1,0-.23c.52,0,.6-.43.68-.83s.11-.71.51-.87l-.23.78c.07,0,.11.07.1.12s0,.09,0,.09C61.12,52.25,61,52.85,60.32,52.76Z"/><path class="cls-3" d="M104.06,52.55c.12.32.66.57.19,1s-.47,0-.56-.29S103.69,52.64,104.06,52.55Z"/><path class="cls-3" d="M131.6,49.43v-.76a.72.72,0,0,1,.21.12c.19.25.88-.07.7.54S131.89,49.24,131.6,49.43Z"/><path class="cls-3" d="M121.5,53c.4-.07.19.5.52.5l-.31.4c0,.11-.11.12-.19,0-.27-.21-.74-.21-.72-.72C121,53,121.31,53.25,121.5,53Z"/><path class="cls-3" d="M137.42,47.94c0-.34-.27-.7.17-.95l.45.5.24.38c-.07.26-.25.22-.44.15Z"/><path class="cls-3" d="M50.73,8.11c-.4.38-.68,1-1.42.76.41-.21.88-.37.72-1a.14.14,0,0,1,.23,0l.38,0c.1,0,.14,0,.14.1S50.76,8.11,50.73,8.11Z"/><path class="cls-3" d="M71.11,1.46l-.23.4a.65.65,0,0,1-.3.5.67.67,0,0,1-.28.06c-.16,0-.34,0-.37-.27A1.06,1.06,0,0,1,71.11,1.46Z"/><path class="cls-3" d="M143.56,12.14a1.5,1.5,0,0,0,.11.34c.09.18.71-.23.43.37-.17.38-.43.25-.66,0s-.39-.3-.34-.58l.26-.18.1-.05Z"/><path class="cls-3" d="M88.88.93l.5.24a.67.67,0,0,1-.55.88c-.2,0-.39,0-.42-.29L88.66,1Z"/><path class="cls-3" d="M2.48,39.51l.23.05c.2-.13.39-.16.55,0l.3.63c-.39,0-.72-.31-1.09-.12C2.2,39.91,2.12,39.71,2.48,39.51Z"/><path class="cls-3" d="M5.61,45.56H6.1c-.23.28.34.86-.32.94-.29,0-.67-.06-.42-.54Z"/><path class="cls-3" d="M119.59.27,120.65.2C120.22.88,120.22.88,119.59.27Z"/><path class="cls-3" d="M123.7,3.35c.25-.69-.81-1-.51-1.69.22.18.27.6.7.47C124.06,2.57,124.3,3,123.7,3.35Z"/><path class="cls-3" d="M95.32,4c-.21.1-.39.3-.66.23h0a.8.8,0,0,1,.46-1C95.62,3.41,95.54,3.71,95.32,4Z"/><path class="cls-3" d="M163.52,42.69v.23a.46.46,0,0,1-.5.22l-.48-.52a.24.24,0,0,1,0-.37l.49-.33.12.1C163.31,42.23,163.29,42.52,163.52,42.69Z"/><path class="cls-3" d="M73.29,55.19c.47-.51,1.09-.17,1.63-.27C74.46,55.53,73.86,55.28,73.29,55.19Z"/><path class="cls-3" d="M33.44,55.15l.73.49a.57.57,0,0,1-.52.27c-.27-.15-.52-.38-.87-.28-.16-.59-.08-.64.68-.47Z"/><path class="cls-3" d="M33.65,55.91c.08-.28.3-.28.52-.27.12.22.74.29.32.65S33.87,56.2,33.65,55.91Z"/><path class="cls-3" d="M134.72,5.42c.19,0,.45,0,.48.3-.32.06,0,.94-.71.53C134.62,6,134.34,5.61,134.72,5.42Z"/><path class="cls-3" d="M86.48,53c.3-.14.34.14.47.29s.42.46,0,.69c-1,.09-.52-.55-.49-1Z"/><path class="cls-3" d="M100.67,5.51l-.46-.28c.43-.45,1-.06,1.42-.19C101.54,5.68,101,5.41,100.67,5.51Z"/><path class="cls-3" d="M50.26,7.87l-.11,0H50a2,2,0,0,1-1.18-.43A1.52,1.52,0,0,1,50.26,7.87Z"/><path class="cls-3" d="M135.92,4.76a.87.87,0,0,1,.05-.22c.29.15.54-.51.81-.07.16.25-.11.42-.3.55S135.93,5.22,135.92,4.76Z"/><path class="cls-3" d="M76.4,54.91c-.11-.22-.46.05-.54-.25.11-.16.21-.32.31-.48a.6.6,0,0,1,.73,0,.39.39,0,0,1,0,.53Z"/><path class="cls-3" d="M29.37,54.19a.85.85,0,0,0,.23,0c.2.07.58.15.58.22,0,.52-.58.27-.83.52A.5.5,0,0,1,29.37,54.19Z"/><path class="cls-3" d="M29.37,54.19l0,.71c-.26,0-.57.12-.74-.22C28.64,54.18,28.91,54,29.37,54.19Z"/><path class="cls-3" d="M115.78,49.64l-.26.23c-.24-.08-.54,0-.73-.22C115.12,49.74,115.45,48.69,115.78,49.64Z"/><path class="cls-3" d="M154.23,48c-.06.15-.11.29-.16.44s-.23.32-.4.05-.52-.21-.29-.52S153.94,48,154.23,48Z"/><path class="cls-3" d="M156.8,47.06l-.51-.26c.23-.82.82-.17,1.22-.29Z"/><path class="cls-3" d="M3.7,46c.06-.22-.13-.56.27-.63s.46.15.44.47A.56.56,0,0,1,3.7,46Z"/><path class="cls-3" d="M67.74,52.05c-.18-.56.65-.26.61-.7a.46.46,0,0,1,.39.46.54.54,0,0,1-.51.42.91.91,0,0,1-.23,0,.4.4,0,0,1-.24-.22Z"/><path class="cls-3" d="M119.4,1.39a.61.61,0,0,0-.56.34c-.19.06-.35,0-.44-.16a1.22,1.22,0,0,0,.24-.89Z"/><path class="cls-3" d="M170.49,17.69l-.25.27-.65-.12c0-.09.06-.25.11-.26C170,17.53,170.28,17.29,170.49,17.69Z"/><path class="cls-3" d="M2.19,43.16c0-1,.55-.24.86-.25C2.88,43.4,2.64,43.65,2.19,43.16Z"/><path class="cls-3" d="M123.47,5.06c0,.34.11.68.18,1.11-.6-.19-.48-.55-.45-.88C123.23,5.15,123.3,5.05,123.47,5.06Z"/><path class="cls-3" d="M135.92,4.76c.12.23.35.22.56.26l-.56.45c-.19-.12-.45-.19-.44-.47S135.73,4.76,135.92,4.76Z"/><path class="cls-3" d="M176,25.9c0-.28.14-.48.46-.49.05.22.48.39.18.65A.39.39,0,0,1,176,25.9Z"/><path class="cls-3" d="M14,55.41c-.2.55-.6.21-.93.2C13.22,54.82,13.68,55.45,14,55.41Z"/><path class="cls-3" d="M34.16,52.75c.36-.8.77-.74,1.21-.07C35,52.48,34.54,52.3,34.16,52.75Z"/><path class="cls-3" d="M105.91,51.29c.09.23.32.24.52.29a1.74,1.74,0,0,1-1.22.21h0C105.17,51.26,105.43,51.13,105.91,51.29Z"/><path class="cls-3" d="M173.86,23.74c.11.34.42.19.65.24,0,.15,0,.3,0,.44-.38.13-.64-.23-1-.27A.42.42,0,0,1,173.86,23.74Z"/><path class="cls-3" d="M96.09,6.8a.85.85,0,0,0,.06.17c-.2.11-.44.32-.63.1s.08-.59.09-.88C95.88,6.3,95.75,6.73,96.09,6.8Z"/><path class="cls-3" d="M145.05,53.7c.23.06.57-.17.68.25l-.93.28a.24.24,0,0,0,0-.12.24.24,0,0,1,0-.26A.5.5,0,0,1,145.05,53.7Z"/><path class="cls-3" d="M72.55,53.74h-.24l-.23-.25c0-.18,0-.45.3-.35S72.56,53.52,72.55,53.74Z"/><path class="cls-3" d="M77.57,2.14c.1.39-.11.49-.45.49l-.07-.06H77c0-.16,0-.32-.08-.48Z"/><path class="cls-3" d="M131.35,5c-.37.42-.78,0-1.16,0C130.56,4.61,131,5,131.35,5Z"/><path class="cls-3" d="M46.29,6.71c.34.1.34.26.34.41s-.14.31-.28.22-.14-.26-.15-.4A.57.57,0,0,1,46.29,6.71Z"/><path class="cls-3" d="M161.34,44.32l-1.18,0,.72-.45c.25-.08.26.26.45.28A.14.14,0,0,0,161.34,44.32Z"/><path class="cls-3" d="M158,46.52c.26-.33.52-.38.78,0C158.47,46.77,158.21,46.94,158,46.52Z"/><path class="cls-3" d="M168.74,18.88l.3-.7.46.27c.19.24,0,.33-.17.45Z"/><path class="cls-3" d="M115.52,51.05c.23.06.29.21.25.44s-.25.24-.44.22C115.37,51.48,115.23,51.2,115.52,51.05Z"/><path class="cls-3" d="M103.79,52l-.29-.17c.15-.17.3-.33.46-.49a.41.41,0,0,1,.33.5l-.05.24Z"/><path class="cls-3" d="M55.05,55.15l.19.07c.41.72-.36.2-.44.41l-.24-.06Z"/><path class="cls-3" d="M58.64,54.44c-.25-.18-.73-.29-.23-.72C58.6,53.92,59.19,54,58.64,54.44Z"/><path class="cls-3" d="M68.73,52.51c0-.24,0-.48,0-.72.16.06.4.07.46.18s-.12.37-.27.52l-.09,0Z"/><path class="cls-3" d="M123.19,1.65c-.19-.23-.7,0-.72-.45C122.86,1.12,123.18,1.13,123.19,1.65Z"/><path class="cls-3" d="M45.65,7.58c-.74.17-.43-.31-.39-.63A.83.83,0,0,1,45.65,7.58Z"/><path class="cls-3" d="M131.12,48.46l-.4,0a8.06,8.06,0,0,1-2.35,2.08.53.53,0,0,1-.37.3l-.12,0h-.11c-.37.27-.75.49-1.2.15-.11-.33.33-.74-.08-1s-.52.26-.77.41-.81,0-1.08.41c-.26.71-.51-.17-.76,0-.47.08-1-.18-1.39.21l-.25,0a.63.63,0,0,1-.72-.46c-.1-.4.26-.5.54-.62a3.09,3.09,0,0,0,.59-.12,2.25,2.25,0,0,1,.72-.51c.26-.13.25-.38.29-.61,0-.41.18-.81.64-.88s.48.41.59.71.44.59.81.3c.61-.48.91,0,1.24.35.27.15.41.07.47-.23s.6-.51,1-.69a.43.43,0,0,0,.13-.49c-.15-.27-.24-.59-.71-.62-.09.41.36,1-.32,1.26s-1.29.5-1.43-.53c0,0,0,0,0,0l0,.09c0,.41.09.89-.58.71a3.09,3.09,0,0,1-1.44-2.5,4.24,4.24,0,0,0,.64-1c.08-.29.1-.68.52-.68s.5.33.59.72c.17.7.51.71,1.09.08-.15-.54-.84-1-.22-1.67.32.3.36.87.92.93s.25-.53.5-.7a.69.69,0,0,1,1,0c.21.37.49,0,.81.08q-.28.57-.57,1.11a2.54,2.54,0,0,0-.15.44c0,.27.19.24.37.15.37-.23.69-.83,1.16-.12a1.54,1.54,0,0,1-.18,1.13c-.12.24-.09.44.19.54a1.22,1.22,0,0,1,.5.33.91.91,0,0,1,.07.14C131.15,48,131.14,48.2,131.12,48.46Z"/><path class="cls-3" d="M159.44,37.63c-.17.39-1.11.62-.24,1.21.28,0,.32.32.48.48l.24.24c.31.64.24.72-.91,1a1.08,1.08,0,0,1-.57-.6c-.34-.55-.12-1.26-.55-1.78a1.53,1.53,0,0,1-.07-.29c0-.09,0-.17-.12-.15s-.08.13-.09.21a2.93,2.93,0,0,1-.05.29c0,.18-.17.4.12.5.5.16.49.55.45,1a.6.6,0,0,1-.32.34c-.57-.32-.4.48-.74.5a.58.58,0,0,1-.32,0,1.23,1.23,0,0,1-.59-1.18c-.65-.47-.71.18-.95.49a.82.82,0,0,1-.42.29,8.42,8.42,0,0,0-1.74,0c-.71.08-1.21-.24-1.11-1.08a.75.75,0,0,1,.62-.21.87.87,0,0,0,.85-.32,1.43,1.43,0,0,1,.74-.09.37.37,0,0,0,.21-.56c-.18-.29-.39-.07-.56.07a8.29,8.29,0,0,1-.72.58,1.6,1.6,0,0,1-.45.23.59.59,0,0,1-.74-.33c0-.44.24-.76.41-1.13a.81.81,0,0,1,.38-.33c.47-.15,1,0,1.41-.45s.5.16.75.27.6.62,1,.12c0-.36-.28-.53-.49-.77a1,1,0,0,1,.11-1.47c.27-.23.81-.94,1.34-.16a.66.66,0,0,1,.63.27c.29.52.53,1,1.29,1a.62.62,0,0,1,.48.91C159,37.06,159.32,37.32,159.44,37.63Z"/><path class="cls-3" d="M126.32,47.72a.5.5,0,0,0,.19.77c.37.22.5-.25.78-.28.23.25.12.49,0,.74a1.59,1.59,0,0,1-.42.66c-.37-.44-.62-1.21-1.32-.18-.2.3-.89-.15-1-.66-.07-.23.3-.7-.23-.67s-.36.53-.39.88a.33.33,0,0,1-.29,0c-.15-.08-.17-.39-.42-.25-.1.06,0,.21,0,.31s.55.25.5.63c-.61-.13-.72.43-1,.74a3.33,3.33,0,0,0-1.24-1.6c-.18-.26,0-.5,0-.75,0-.07,0-.21,0-.21-.19,0,0,.17,0,.26-.16.48-.14,1-.68,1.32a1.41,1.41,0,0,0-.72.5.92.92,0,0,1-.22.22c-1.14.54-.61-.63-.94-.92h0c-.65-1,.36-.77.72-1,.35-.1.31-.27.06-.45a5.55,5.55,0,0,1-.46-.35l-.07-.13c.16-.45.55-.91-.14-1.4a2,2,0,0,1,1.35.45c-.07.08-.19.14-.13.28s.13,0,.2,0a5.74,5.74,0,0,1,1.33-1c.35.26.71,1,1,0v-.43a1.34,1.34,0,0,1,1.44,1.2c-.07,1.21,0,1.32,1.09,1.06,0,.41-.54,1.09.29,1.15.67.06-.08-.62.31-.77A.31.31,0,0,1,126.32,47.72Z"/><path class="cls-3" d="M172.38,34.47a1.85,1.85,0,0,1-1.4.36c-.19-.34.21-.51.22-.79-.13-.76-.44-1.2-1.25-.65-.23.16-.43.36-.74.24s-.38-.18-.37-.41.25-.32.51-.24c.42.14.62-.26.92-.42a.31.31,0,0,0,.1-.5c-.55-.79-.55-.79.35-1.14.41-.07.63-.27.49-.71a.71.71,0,0,0,0-.73c.63-.11.58-1,1.27-1.07.29.06.52.28.82.33.34.28.41.86,1,.89.05,0,.5,0,.17.33-.56.51-.21,1,.08,1.44-.19.5-.37,1-.61,1.64l-.84-1.22c-.11-.17-.23-.36-.46-.22a.36.36,0,0,0-.11.52c0,.07.06.17.12.2.5.26.3.87.22,1.08-.17.5-.65-.14-1,.05C171.6,34,172.48,34,172.38,34.47Z"/><path class="cls-3" d="M147.46,37.63c-.28.43-.83.66-1,1.2a1.43,1.43,0,0,1-.12.45,3.65,3.65,0,0,1,.35-.43l1.22.24c-.15.69.47.06.56.33.56.5.09.79-.21,1.13a.69.69,0,0,1-.32.12,1.2,1.2,0,0,1-.64-.17c-.63-.29-.9.19-1.2.58a2.1,2.1,0,0,1-.45.62.76.76,0,0,1-.28.15.48.48,0,0,1-.51-.31c.07-.6-.34-.86-.79-1.08a.72.72,0,0,1-.15-.27c0-.81.88-.77,1.26-1.22a.93.93,0,0,0,.31-.6c-.34-1,.78-1.38,1-2.17.3.37.61.48.93,0,.73-.53,1.69,0,2.42-.51.25.24.5,0,.75,0,.42.53.11.62-.38.74-.71.16-1.6-.17-2.07.69C147.69,37,147.63,37.39,147.46,37.63Z"/><path class="cls-3" d="M159,36.67c.3-.78-.27-.87-.7-.67s-.67.23-.63-.4-.51-.75-.83-1.08c.35-.63.62-.47.88.08.08.16,0,.57.38.41a.48.48,0,0,0,.34-.57c-.17-.53.17-.84.41-1.21.46.51,1.44.37,1.61,1.29.07.39-.13.45-.36.4-.38-.08-.78-.53-1,.26s.28.9.83,1a.58.58,0,0,1-.32.78C159.3,37.13,159.08,37,159,36.67Z"/><path class="cls-3" d="M124.16,46.28a4.76,4.76,0,0,0-1.44-1.2c-.14-.29-.32-.59.06-.83a.71.71,0,0,1,.88.13c.33.28.47.77,1,.09A.77.77,0,0,1,126,45c0,1,.56.26.84.36s.41-.23.45.1-.22.73-.34.67c-.49-.28-1.51.28-1.47-.86,0-.26,0-.51-.28-.52s-.3.24-.27.44C125,45.75,124.48,46,124.16,46.28Z"/><path class="cls-3" d="M152.47,37.37c.06.45-.36.68-.49,1.05-.41.1-.66-.2-1-.35-.32.57-.91.58-1.44.73a1.32,1.32,0,0,1-.81,0c-.12-.31-.43,0-.61-.19,0-1,1.08-.44,1.45-.93a12.29,12.29,0,0,1,1.2-.72l.93.24a1.33,1.33,0,0,1,.4,0A.58.58,0,0,1,152.47,37.37Z"/><path class="cls-3" d="M140.94,40.57c.52-.6,1-1.31,1.95-1,.46,0,.38.26.17.52-.11,0-.25-.07-.35.06a.56.56,0,0,1,.2.08c.22.3.1.66.21,1a2.06,2.06,0,0,1,.08.6c-.31.5-.83.25-1.25.35a1,1,0,0,1-.29-.11c-.25-.27-.33-.63-.56-.91A.63.63,0,0,1,140.94,40.57Z"/><path class="cls-3" d="M137.36,42.2c-.36-.77.11-.92.72-1l.15,0c.3.22.87.13.85.72-.56.45.15.85,0,1.28-.33.7-.6,1.49-1.64,1.23-.21-.12-.28-.31-.07-.46s.16-.37,0-.55A1.34,1.34,0,0,1,137.36,42.2Z"/><path class="cls-3" d="M9.48,49.16l-.28-.47c.47-1.51.64-1.58,1.8-.44.3.29.52-.21.76.2,0,.37-1,.36-.55,1,.06.09-.4.15-.54-.07A.73.73,0,0,0,9.48,49.16Z"/><path class="cls-3" d="M130.4,45.56c-.62-.46-.54.54-1,.48s-.45-.47-.69-.7c.08-.21.26-.25.46-.26.88-.29,2-.3,1.92-1.67h0c.31.3.64-.83,1,0a.32.32,0,0,1,.07.31c-.38.45-.06,1.26-.79,1.52a1.07,1.07,0,0,0-.67.33A.26.26,0,0,1,130.4,45.56Z"/><path class="cls-3" d="M164.48,36.44c.3.51-.2.54-.43.73-.26,0-.12.1-.07.19a1.18,1.18,0,0,1-.47.75c-.17-.27-.49-.1-.71-.23-.21,0-.46.34-.62,0-.27-.46.29-.67.4-1,.27-.1.41-.4.71-.46A2.19,2.19,0,0,1,164.48,36.44Z"/><path class="cls-3" d="M116.48,48.44l-.72-.48c1,0,1.16-1,1.3-1.48.48-1.5.76-.5,1.15,0a1.88,1.88,0,0,1-.4,1c-.29.27-.72.37-.94.74A.6.6,0,0,1,116.48,48.44Z"/><path class="cls-3" d="M139.58,9.29c-.24.07-.57,0-.7.26s.28.47.41.71a.56.56,0,0,1-.73.27c-.25-.35-.5-.7-.78-1s-.35-.47,0-.49c1,0,.21-.6.29-.89a.45.45,0,0,1,.45-.13,1.16,1.16,0,0,1,.57.32A2.07,2.07,0,0,1,139.58,9.29Z"/><path class="cls-3" d="M137.36,42.2l.24,1.38c0,.4-.45.41-.58.69a.38.38,0,0,1-.42.12,2.75,2.75,0,0,0-.76-.49,1.31,1.31,0,0,1-.35-.74.57.57,0,0,1,.19-.46c.15-.26.31-.26.5,0s.49-.09.74,0Z"/><path class="cls-3" d="M69.39,49.9l-.83-1c.72-.31,1.29.27,1.94.15.25-.05.91-.16.77.53s-.57.36-.93.29S69.71,49.86,69.39,49.9Z"/><path class="cls-3" d="M142.91,40.05c.22-.17.21-.33,0-.48,0-1.29.68.06.92-.26.27.27-.07.72.27,1h0c.24.29.1.54-.1.77a1.15,1.15,0,0,1-.29.2c-.27.1-.54.26-.79,0s0-.64,0-1A.12.12,0,0,1,142.91,40.05Z"/><path class="cls-3" d="M154.89,36.92c-.79-.56-1.39.62-2.17.24a.21.21,0,0,1-.07-.18c0-.07,0-.1,0-.1.22-.21.52-.05.75-.19s.45-.24.26-.63c-.33-.68.36-.57.64-.63.55-.13.44.13.27.51s.42.59.54.94C155.08,37,155,37,154.89,36.92Z"/><path class="cls-3" d="M171.2,34c.29.37-.16.52-.22.79.11.31-.34,1.19.62.62.29-.17.56-.7.88-.36s-.35.57-.44.91a2.25,2.25,0,0,1-.12.21l-.49,0c-.2-.1-.43,0-.63-.08a.52.52,0,0,1-.08-.87C170,34.49,170.64,34.28,171.2,34Z"/><path class="cls-3" d="M133.51,42.69c.29-.24-.07-.49,0-.73h0c.47,0,.67.46.95.75-.15.52.48.19.55.49-.49.52-.64,1.41-1.57,1.44a1.17,1.17,0,0,1-.35-1,3.26,3.26,0,0,1,.26-.53A1.43,1.43,0,0,1,133.51,42.69Z"/><path class="cls-3" d="M162.76,36.47c-.7-.13-1.38-.2-1.85.49l-.12-.07a5.09,5.09,0,0,1-.34-.47.59.59,0,0,1-.1-.28c.91-.8,1.81-.5,2.71,0A.34.34,0,0,1,162.76,36.47Z"/><path class="cls-3" d="M159,36.67c.59.42.77-.05,1-.46l.42-.07.06.07a2.15,2.15,0,0,0,.47.71l0,0a2,2,0,0,1-1.47.67C159.11,37.4,158.4,37.36,159,36.67Z"/><path class="cls-3" d="M141.66,42,142,42c-.4.5-.22,1.89-1.53,1-.19-.2.28-.58-.19-.71a.73.73,0,0,1-.23-.16c-.19-.22-.45-.4-.37-.75l.09-.12.69,0a1,1,0,0,1,.56.14A3,3,0,0,1,141.66,42Z"/><path class="cls-3" d="M86.26,50.86l-.27.38c-.57-.76-.59-.78,0-1.2s1.34-.89,2,.06l-.4.27c-.35-.37-.33.26-.55.21S86.36,50.44,86.26,50.86Z"/><path class="cls-3" d="M152.08,37.34l-.35-.18c.4-.82-.26-1.38-.57-2.1,1.35-.16,1,1,1.34,1.57A1.29,1.29,0,0,1,152.08,37.34Z"/><path class="cls-3" d="M168.13,32.14a1.84,1.84,0,0,1-1.08,1.31.5.5,0,0,1-.7-.25c-.1-.28.07-.44.46-.44.78,0,.91-.46.56-1.11C167.88,31.41,168.1,31.62,168.13,32.14Z"/><path class="cls-3" d="M3.26,39.61l-.55,0c.85-.64-.21-1.27,0-1.91a1.13,1.13,0,0,0,1,.49C3.62,38.65,4.36,39.41,3.26,39.61Z"/><path class="cls-3" d="M165.92,35.48c-.55-.33-.91.45-1.44.24.28-.76,1.13-1,2.3-.72C166.63,35.4,166.09,35.11,165.92,35.48Z"/><path class="cls-3" d="M144.08,40.29c-.53-.21-.45-.58-.27-1,0-1,.71-.69,1.25-.69a1.36,1.36,0,0,1,.44.42C145.22,39.68,144.2,39.47,144.08,40.29Z"/><path class="cls-3" d="M7.91,47.75c-.56,0-.89-.41-.59-.87s.46.14.67.3.51,0,.71-.17C9,47.78,9,47.86,7.91,47.75Z"/><path class="cls-3" d="M168.13,32.14a.76.76,0,0,0-.76-.49c.46-.63.93-.42,1.4,0,.11.2.15.54.5.23C169.23,33.38,168.51,32.05,168.13,32.14Z"/><path class="cls-3" d="M163.06,17c.95-1,1.48,0,2.15.43a.54.54,0,0,1-.48.37,3.1,3.1,0,0,1-.79-.17A3.84,3.84,0,0,1,163.06,17Z"/><path class="cls-3" d="M74,53.51c.57-.13.8.29.65.64a.79.79,0,0,1-1.14.29c-.18-.19-.38-.39-.19-.69C73.57,53.71,73.87,53.83,74,53.51Z"/><path class="cls-3" d="M71.32,1.94c.25-.3.56-.42.7,0,.08.23.47.67-.08.86s-.37.43-.3.74c-.32-.13-.27-.42-.27-.68a.81.81,0,0,1-.19-.29A.65.65,0,0,1,71.32,1.94Z"/><path class="cls-3" d="M130.88,42.2c.19.1,1-.46.43.42a1.36,1.36,0,0,0-.18.78h0L130,43.25c0-.67,1.09-.28.9-1Z"/><path class="cls-3" d="M129,43.89h-1c.22-1,.88-.85,1.58-.64C129.6,43.74,129.06,43.58,129,43.89Z"/><path class="cls-3" d="M117.67,47.53a1.69,1.69,0,0,1,.53-1.09c.22.13.19.36.22.57a3.51,3.51,0,0,1,.14.86.53.53,0,0,1-.18.43.76.76,0,0,1-.66,0C117.42,48.09,117.16,47.84,117.67,47.53Z"/><path class="cls-3" d="M122.72,45.51c.21.38.33.92-.1,1-.65.16-.76-.5-.89-1Z"/><path class="cls-3" d="M135.74,8c-.11-.24.61-.74-.24-.75l.21-.54.64-.25.26.54c.4.34-.15.45-.18.69C136.38,8.16,136.15,8.27,135.74,8Z"/><path class="cls-3" d="M28.39,53.26h-.2c-.21.21-.4.51-.76.21s-.18-.41.14-.47c.5-.09.54-.46.52-.9C28.68,52.41,28.68,52.8,28.39,53.26Z"/><path class="cls-3" d="M148.15,38.57c.17,0,.36-.26.51,0s.44.35.29.68-.39.15-.57.26-.54.07-.66,0,.18-.24.22-.41Z"/><path class="cls-3" d="M133.76,43.16a.49.49,0,0,1-.48.25.73.73,0,0,0-.17.31c-.09.3.13.81-.45.78s-.62-.41-.58-.86V43.4c.28,0,.57,0,.74-.26A.75.75,0,0,1,133.76,43.16Z"/><path class="cls-3" d="M14.23,22.73a1.11,1.11,0,0,1,0-.19c.3-.09.25-.64.7-.51.14,1.08.05,1.2-.74,1C14.22,22.92,14.23,22.82,14.23,22.73Z"/><path class="cls-3" d="M172.7,28.53c-.75-.07-.62,1.23-1.49.95.38-.67.65-1.49,1.71-1.16C172.94,28.49,172.86,28.55,172.7,28.53Z"/><path class="cls-3" d="M143.56,37.83a1.74,1.74,0,0,1-1.23,1C142.15,37.76,142.9,38,143.56,37.83Z"/><path class="cls-3" d="M26.23,54.68c.06.4-.41.42-.5.72l-.44.24c0-.19.08-.46-.26-.5C25.1,54.12,25.84,54.86,26.23,54.68Z"/><path class="cls-3" d="M120.07,3.08l.06.94c-.46-.28-.42-1-1-1.17-.18-.18-.08-.5-.3-.67a.39.39,0,0,1,0-.3C119.52,2,119.56,2.79,120.07,3.08Z"/><path class="cls-3" d="M46.88,58.28,45.68,58c.47-.16.75-.9,1.42-.48C47,57.79,47,58,46.88,58.28Z"/><path class="cls-3" d="M133.52,42a1.57,1.57,0,0,1-.23,0c-.32,0-.51.64-.89.2a.65.65,0,0,1,0-.54c.41-.1.86-.25,1.09.3Z"/><path class="cls-3" d="M165.2,18.2c-.15-.16-.29-.33-.44-.5l.45-.24,1,1.12C165.71,18.87,165.55,18.27,165.2,18.2Z"/><path class="cls-3" d="M138.55,40.28a.69.69,0,0,1,1,.21.77.77,0,0,1,0,.71c-.42.37-.66,0-.91-.24A.79.79,0,0,1,138.55,40.28Z"/><path class="cls-3" d="M44,10.53c-.32.13-.68.36-.87-.11s.4-.54.6-.82C44.44,9.74,44.05,10.19,44,10.53Z"/><path class="cls-3" d="M101.48,49.9c.25,0,.52.13.5.41s-.37.13-.56.18-.44.14-.44-.17S101.23,49.94,101.48,49.9Z"/><path class="cls-3" d="M40.18,53.62c-.48.05-.9.46-1.36.16,0,0,0-.24.06-.3C39.35,53.06,39.74,53.62,40.18,53.62Z"/><path class="cls-3" d="M135,43.16c-.21-.1-.8.21-.49-.45.41.42.8-.64,1.21,0,0,.16,0,.32,0,.48A.51.51,0,0,1,135,43.16Z"/><path class="cls-3" d="M147.41,36.23c.32.53-.17.61-.45.66-.57.11-.46-.36-.48-.69Z"/><path class="cls-3" d="M44.26,57.79c-.25-.23-.53-.09-.79,0s-.33-.21-.25-.44a.82.82,0,0,1,1.12-.11C44.64,57.35,44.28,57.59,44.26,57.79Z"/><path class="cls-3" d="M70.05,3c.4.24.68.45.52.86a.25.25,0,0,1-.39.12C69.81,3.7,69.86,3.38,70.05,3Z"/><path class="cls-3" d="M160.3,32.67c0,.33-.14.39-.35.4s-.5,0-.56-.27.21-.28.38-.34S160.18,32.55,160.3,32.67Z"/><path class="cls-3" d="M169.28,36.22l-.52-.13.26-.37.73-.23c.15.17.44,0,.55.28C170.19,36.44,169.72,36.3,169.28,36.22Z"/><path class="cls-3" d="M164.05,17.53l-.25.41c-.39-.19-.92-.27-.74-.91C163.57,16.84,163.73,17.34,164.05,17.53Z"/><path class="cls-3" d="M39.23,55.9a2.4,2.4,0,0,1,0-1.22C39.43,55.08,40.53,55.46,39.23,55.9Z"/><path class="cls-3" d="M44,10.53c0-.32.08-.7-.27-.93.13-.3.3-.61.68-.37s0,.39-.06.58A6.82,6.82,0,0,0,44,10.53Z"/><path class="cls-3" d="M127.5,44.58c-1.09.47-.67-.57-.92-.93C127.15,43.7,127.18,44.28,127.5,44.58Z"/><path class="cls-3" d="M88.89,1.9l.24.47-.43.43-.51-.18c.06-.25.15-.5-.06-.73l.28-.13Z"/><path class="cls-3" d="M138.56,8.12h-.46c-.64-.13-.57-.49-.3-.92.32.08.38.57.8.49A.3.3,0,0,1,138.56,8.12Z"/><path class="cls-3" d="M131.14,8.78c-.18,0-.38-.13-.32-.27a.7.7,0,0,1,.68-.35c.08,0,.23.14.22.19C131.68,8.69,131.36,8.7,131.14,8.78Z"/><path class="cls-3" d="M26.7,14.63l0-.25c.09-.12.2-.23.29-.35s.33-.4.53-.13-.19.28-.29.42S27.19,15.08,26.7,14.63Z"/><path class="cls-3" d="M150.47,15a.46.46,0,0,1,.32.46c0,.21-.08.42-.3.46a.33.33,0,0,1-.38-.35A.75.75,0,0,1,150.47,15Z"/><path class="cls-3" d="M169,31.42a1.69,1.69,0,0,0-.09-.34c-.1-.19-.43-.28-.25-.57.05-.08.22-.17.28-.14.25.1.3.34.3.59s0,.47,0,.7C169.07,31.7,169,31.65,169,31.42Z"/><path class="cls-3" d="M171.21,30.21c.7.27.14.58,0,.82s-.42.39-.47-.11Z"/><path class="cls-3" d="M168.33,34c.21.11.66-.35.65.12s-.2,1-.9.62A1.76,1.76,0,0,1,168.33,34Z"/><path class="cls-3" d="M94.78,50.21a.57.57,0,0,1-.42-.47c-.11-.31.11-.33.32-.32s.42.06.35.34A1.63,1.63,0,0,1,94.78,50.21Z"/><path class="cls-3" d="M37,53c0-.25,0-.49,0-.74.48.06,1-.25,1.4.27C37.79,52.09,37.55,53,37,53Z"/><path class="cls-3" d="M27.43,53.48l.76-.21c0,.42.14.88-.27,1.21-.16-.25-.32-.51-.49-.76A1,1,0,0,0,27.43,53.48Z"/><path class="cls-3" d="M47.1,9.49c-.6.2-.93.15-1.05-.28a.46.46,0,0,1,.23-.36C46.8,8.71,46.62,9.37,47.1,9.49Z"/><path class="cls-3" d="M21.22,53.08c.21,0,.37.14.33.37s.13.45-.16.45-.38-.24-.4-.49A.28.28,0,0,1,21.22,53.08Z"/><path class="cls-3" d="M70.6,51.52c0-.23,0-.45,0-.68.31.08.85-.18.74.51a1,1,0,0,1-.26.2Z"/><path class="cls-3" d="M52.43,55.11l-.75.29c-.14-.52.24-.65.61-.69S52.48,54.94,52.43,55.11Z"/><path class="cls-3" d="M69.14,4.39c-.16.14-.25.28-.38.33-.3.11-.45-.07-.51-.33s0-.38.22-.34A3,3,0,0,1,69.14,4.39Z"/><path class="cls-3" d="M69.39,49.9c.3-.43.59-.79,1-.06C70,50.16,69.73,50.25,69.39,49.9Z"/><path class="cls-3" d="M120.39,46.52c-.08.23.06.59-.31.65-.1,0-.33-.16-.32-.24,0-.35.06-.71.56-.65Z"/><path class="cls-3" d="M140.91,41.46a.44.44,0,0,1-.46-.24c.09-.28.14-.58.49-.65l.29.46A.32.32,0,0,1,140.91,41.46Z"/><path class="cls-3" d="M135.41,40.37c.59-.3.86,0,1.28,0C136.2,41,135.92,40.58,135.41,40.37Z"/><path class="cls-3" d="M138.94,38.68c.5-.56.78-.77,1.27-.65C140,38.71,139.55,38.4,138.94,38.68Z"/><path class="cls-3" d="M154.89,36.92l.25,0,.7,0c.08.21.28.52,0,.57A.83.83,0,0,1,154.89,36.92Z"/><path class="cls-3" d="M71.88,51.58c.42-.12.7.18.62.47s-.46.26-.72,0A.36.36,0,0,1,71.88,51.58Z"/><path class="cls-3" d="M71.88,51.58l-.1.49c-.64.36-.67,0-.66-.52l.26-.2C71.36,51.83,71.66,51.6,71.88,51.58Z"/><path class="cls-3" d="M62,49.86c.41.61,0,.84-.49,1A1.26,1.26,0,0,1,62,49.86Z"/><path class="cls-3" d="M36.71,48.52c-.07.2-.19.36-.42.34s-.33-.14-.26-.3.23-.2.37-.25S36.72,48.29,36.71,48.52Z"/><path class="cls-3" d="M118.38,47.77c-.33-.27-.07-.51,0-.76l.69.22,0,.07a.51.51,0,0,1-.31.54A.53.53,0,0,1,118.38,47.77Z"/><path class="cls-3" d="M7.29,42.51c-.26.15-.42.52-.71.38-.11,0-.21-.45-.14-.52C6.74,42.08,7,42.56,7.29,42.51Z"/><path class="cls-3" d="M146.72,38.85c0,.47-.37.68-.62,1.12a1.07,1.07,0,0,1,.39-1.14Z"/><path class="cls-3" d="M53.51,8.71c0,.23-.12.38-.26.3A.7.7,0,0,1,53,8.58c0-.08.17-.2.27-.3Z"/><path class="cls-3" d="M144.45,37.63c-.11.09-.24.27-.41.32s-.21-.18-.22-.32a.34.34,0,0,1,.34-.4C144.34,37.23,144.42,37.38,144.45,37.63Z"/><path class="cls-3" d="M150.8,36.92a1.47,1.47,0,0,1-1.2.72A1.14,1.14,0,0,1,150.8,36.92Z"/><path class="cls-3" d="M41.43,57.24c-.22,0-.27-.15-.21-.31s.08-.43.33-.4a.47.47,0,0,1,.24.33C41.81,57.08,41.62,57.19,41.43,57.24Z"/><path class="cls-3" d="M136.43,7.64c-.68-.41.56-.35.18-.69.18.18.55.43.51.55C137,7.81,136.67,7.57,136.43,7.64Z"/><path class="cls-3" d="M122.86,6.6a2.52,2.52,0,0,1-.57.23c-.22,0-.24-.16-.16-.32s.26-.31.48-.2S122.75,6.46,122.86,6.6Z"/><path class="cls-3" d="M61.47,5.73c.57.14.91.15.92.56,0,.08-.14.16-.22.23C62,6.33,61.82,6.13,61.47,5.73Z"/><path class="cls-3" d="M73.33,53.75l.19.69-.53.23a.48.48,0,0,0-.19-.74C72.84,53.46,73.09,53.64,73.33,53.75Z"/><path class="cls-3" d="M72.07,5.15a.23.23,0,0,1-.21-.33.53.53,0,0,1,.33-.27.23.23,0,0,1,.3.26A.42.42,0,0,1,72.07,5.15Z"/><path class="cls-3" d="M43.22,57.31c0,.22.11.32.25.44l-.24.3c-.18-.13-.49-.25-.51-.4S43,57.32,43.22,57.31Z"/><path class="cls-3" d="M118.3,44.68l.18.25a2.94,2.94,0,0,1-.47.31c-.13,0-.22-.06-.16-.21S118,44.64,118.3,44.68Z"/><path class="cls-3" d="M133.76,43.16l-.94,0c0-.5.36-.46.69-.45Z"/><path class="cls-3" d="M136.92,42.66c-.25.19-.49.6-.74,0C136.42,42.76,136.67,41.88,136.92,42.66Z"/><path class="cls-3" d="M132,40.86l-.26.23a1.85,1.85,0,0,1-.31-.44c-.06-.16.05-.34.22-.26S131.89,40.68,132,40.86Z"/><path class="cls-3" d="M145.5,39c-.34.05-.48-.09-.44-.42l.46-.25C146,38.61,145.62,38.82,145.5,39Z"/><path class="cls-3" d="M152.08,37.34c-.21-.44.13-.56.42-.71a.33.33,0,0,0,.22,0,.2.2,0,0,1,.08.19c0,.07,0,.1,0,.1a1.55,1.55,0,0,0,0,.21l-.25.21Z"/><path class="cls-3" d="M150.58,35.72c-.11.19-.21.41-.47.41s-.25-.23-.28-.41C150.08,35.66,150.33,35.35,150.58,35.72Z"/><path class="cls-3" d="M170.23,35.73l-.48-.24,1-.26V36C170.47,36.08,170.34,35.92,170.23,35.73Z"/><path class="cls-3" d="M3.66,34.55c.2.21.76.38.3.73s-.28-.39-.54-.48Z"/><path class="cls-3" d="M168.33,34a.45.45,0,0,1-.25.74C167.69,34.37,167.75,34.12,168.33,34Z"/><path class="cls-3" d="M165,32.72c0,.48-.12.83-.42.75s-.07-.32.07-.47S164.76,32.87,165,32.72Z"/><path class="cls-3" d="M155.16,33.24c-.2,0-.26-.13-.32-.27s-.06-.31.16-.32a.29.29,0,0,1,.34.23C155.37,33,155.35,33.19,155.16,33.24Z"/><path class="cls-3" d="M5.36,31.06A.32.32,0,0,1,5,30.78c0-.22.07-.38.32-.38s.26.16.26.32A.31.31,0,0,1,5.36,31.06Z"/><path class="cls-3" d="M172.64,27.32c-.27.1-.54.33-.95.07.35-.39.63-.4.95-.07Z"/><path class="cls-3" d="M151.48,17.19l.29.06c-.11.2-.22.44-.5.39s-.26-.29-.22-.46C151.2,16.63,151.33,17.26,151.48,17.19Z"/><path class="cls-3" d="M45.63,10.19c-.19.1-.3.21-.37.19s-.41-.1-.43-.34c0,0,.18-.17.24-.15A2.61,2.61,0,0,1,45.63,10.19Z"/><path class="cls-3" d="M103,5.25l.51-.51a.32.32,0,0,0,.21.08h0C103.35,5.67,103.35,5.67,103,5.25Z"/><path class="cls-3" d="M89.34,2.38c.59,0,0-.65.44-.76.12.25.23.51.35.76C89.87,2.6,89.61,2.69,89.34,2.38Z"/><path class="cls-3" d="M3.44,30.44c0-.48,0-.94.66-.51Z"/><path class="cls-3" d="M48.31,56.87l-.47.21c0-.21-.38-.46-.06-.61S48.31,56.49,48.31,56.87Z"/><path class="cls-3" d="M167.59,35.73c.11.24.88.47,0,.72C167.49,36.21,167.18,36,167.59,35.73Z"/><path class="cls-3" d="M162.76,36.47l.3-.29c.08.08.15.17.23.26-.14.31-.34.52-.71.46Z"/><path class="cls-3" d="M19.25,54.42l.47-.75C20.15,54.29,20,54.52,19.25,54.42Z"/><path class="cls-3" d="M147.46,37.63c0-.49,0-1,.67-.48Z"/><path class="cls-3" d="M83.18,3.3c0-.4.1-.71.42-.65s.3.31,0,.47C83.51,3.18,83.39,3.21,83.18,3.3Z"/><path class="cls-3" d="M138.55,40.28c.09.15.18.31.28.46-.13.35-.3.64-.75.5h0A1.39,1.39,0,0,1,138.55,40.28Z"/><path class="cls-3" d="M41.47,9.88c-.2-.44.06-.65.26-.94C42,9.34,41.8,9.59,41.47,9.88Z"/><path class="cls-3" d="M146.71,14.86l-.24-.06c0-.38,0-.77,0-1.16h0A1,1,0,0,1,146.71,14.86Z"/><path class="cls-3" d="M148.4,16.75c-.23-.21-.16-.47-.16-.72.1,0,.26,0,.29,0A.45.45,0,0,1,148.4,16.75Z"/><path class="cls-3" d="M153.21,16.77l0,.73c-.25-.27-.6-.24-.91-.32Z"/><path class="cls-3" d="M166.6,19.22a.25.25,0,0,1,.27.29.26.26,0,0,1-.34.22.36.36,0,0,1-.21-.21C166.31,19.35,166.43,19.25,166.6,19.22Z"/><path class="cls-3" d="M158.91,21.27a.7.7,0,0,1-.06-.91C158.94,20.61,159.2,20.82,158.91,21.27Z"/><path class="cls-3" d="M105.7,50.37c-.25.33-.65.13-1,.27C104.93,50.08,105.28,50.09,105.7,50.37Z"/><path class="cls-3" d="M172.7,28.53l.22-.21a.34.34,0,0,1,.2,0l.21.27a.2.2,0,0,0,0,.15c-.15.09-.32.26-.46.25S172.69,28.71,172.7,28.53Z"/><path class="cls-3" d="M7,30.18c-.06,0-.23-.11-.22-.14a3.65,3.65,0,0,1,.18-.41.88.88,0,0,1,.26.19C7.26,30,7.19,30.12,7,30.18Z"/><path class="cls-3" d="M118.6,2.34l.2-.26c.34.16.32.47.32.77C118.71,2.93,118.93,2.35,118.6,2.34Z"/><path class="cls-3" d="M71.36,2.59v.28a1.18,1.18,0,0,1-1.07-.45l.09,0C70.8,2.06,71.08,2.33,71.36,2.59Z"/><path class="cls-3" d="M74.94,2.59c0,.28-.29.34-.45.49C74.09,2.42,74.76,2.73,74.94,2.59Z"/><path class="cls-3" d="M103.74,4.82c.13-.22.29-.37.56-.2a.23.23,0,0,1,.06.19c-.2.28-.41,0-.62,0Z"/><path class="cls-3" d="M62.48,4.76c0,.24-.08.47-.39.44-.06,0-.15-.09-.14-.12.06-.29.31-.29.53-.32Z"/><path class="cls-3" d="M131.59,6l.24.4c-.23,0-.56.25-.65-.16C131.13,6,131.4,6,131.59,6Z"/><path class="cls-3" d="M131,6.89c.05.3-.14.29-.27.29s-.31,0-.33-.21.09-.31.27-.27A1.06,1.06,0,0,1,131,6.89Z"/><path class="cls-3" d="M136.33,9.66c-.15.34-.26.35-.36.27a.52.52,0,0,1-.2-.27c0-.14,0-.21.2-.15Z"/><path class="cls-3" d="M139.92,13.07c0-.08-.13-.16-.15-.26s.06-.25.2-.19a.47.47,0,0,1,.21.25C140.21,13,140.11,13.08,139.92,13.07Z"/><path class="cls-3" d="M162.3,18.05l.33-.29c-.14.32.08.59.14.94C162.27,18.68,162.33,18.33,162.3,18.05Z"/><path class="cls-3" d="M160.54,21.17c-.14,0-.24.14-.31.12s-.14-.14-.2-.22.17-.16.23-.15S160.42,21.05,160.54,21.17Z"/><path class="cls-3" d="M167.54,21.44c-.13.06-.23.14-.31.13a.22.22,0,0,1-.22-.3.33.33,0,0,1,.28-.09C167.37,21.21,167.43,21.32,167.54,21.44Z"/><path class="cls-3" d="M152.76,37l0-.29c.26-.41.48,0,.71,0C153.29,37,153,36.89,152.76,37Z"/><path class="cls-3" d="M169,31.42l.23.24v.2l-.35.3-.15-.53Z"/><path class="cls-3" d="M139.52,41.24l.06-.75c.56.13.31.46.18.75h0A.14.14,0,0,1,139.52,41.24Z"/><path class="cls-3" d="M74.59,51.44c0-.07-.14-.16-.13-.23a.36.36,0,0,1,.16-.25s.22.07.24.14S74.79,51.37,74.59,51.44Z"/><path class="cls-3" d="M130.88,42.21c-.22,0-.49.08-.6-.22,0,0,.05-.16.09-.17.29,0,.4.18.51.38Z"/><path class="cls-3" d="M7.29,31.55c0,.15,0,.36-.24.28a.32.32,0,0,1-.16-.26c0-.16.1-.3.27-.28S7.25,31.47,7.29,31.55Z"/><path class="cls-3" d="M159,40.51c.18-.44,1.14-.12.92-.95.65-.48.85-.09,1,.5-.29.32.1.59.08.89a8,8,0,0,0-.42,1.16.34.34,0,0,1-.24.16c-.09,0-.15-.17-.21-.06s0,.21,0,.32-.14.52-.43.61a1,1,0,0,0-.57.67.4.4,0,0,1-.26.16.41.41,0,0,1-.27-.15c-.19-.37-.59-.61-.66-1.06a1,1,0,0,1,.12-.29.57.57,0,0,0-.16-.81.54.54,0,0,1-.2-.41c.1-.4-.3-.83.08-1.21l.24-.24a.23.23,0,0,1,.29,0C158.53,40,158.47,40.54,159,40.51Z"/><path class="cls-3" d="M170.23,35.73l.49.24h0a.62.62,0,0,1,.25.65c-.19.07-.43.1-.45.38l-1,.63a1.16,1.16,0,0,1-.24-1.41C169.46,35.79,170.14,36.34,170.23,35.73Z"/><path class="cls-3" d="M160.42,42.13c.07-.42-.29-1,.47-1.13a.31.31,0,0,1,.26-.12.29.29,0,0,1,.21.19v.68c.18.24.49.53.09.76A.69.69,0,0,1,160.42,42.13Z"/><path class="cls-3" d="M160.42,42.13c.35-.06,1.12.95,1-.38.27.2.87-.65.92.28-.15.82-.75.83-1.39.77-.31-.08-.59-.18-.5-.59Z"/><path class="cls-3" d="M167.14,38.34a.47.47,0,0,1-.51.53.41.41,0,0,0-.22,0l-1.14-.35C165.86,37.77,166.53,38.47,167.14,38.34Z"/><path class="cls-3" d="M163.13,39.54c-.46-.11-.8.42-1.24.2a.61.61,0,0,1,.06-.53C162.38,38.88,162.76,39.17,163.13,39.54Z"/><path class="cls-3" d="M165.67,40.76a.31.31,0,0,0-.19,0c-.26-.16-.51.24-.77,0,0-.15,0-.3,0-.45.45-.3.91-.69,1.2.17Z"/><path class="cls-3" d="M163,41.92l-.47-.44c.27-.11.26-.68.73-.46-.08.43.55.51.46.94a1.94,1.94,0,0,1-.72.11Z"/><path class="cls-3" d="M161.1,41a.5.5,0,0,1-.21,0c-.26-.31-1-.62,0-.94l.24.22A.48.48,0,0,1,161.1,41Z"/><path class="cls-3" d="M163.3,41c-.27.11-.35.53-.73.46.06-.36.08-.77.49-.87S163.31,40.83,163.3,41Z"/><path class="cls-3" d="M164.5,39.78l.21.46c-.31.21-.57.22-.71-.2-.14-.17-.15-.37,0-.47S164.37,39.63,164.5,39.78Z"/><path class="cls-3" d="M159.68,39.32a.81.81,0,0,1-.48-.48c.05-.22.08-.52.41-.35S159.64,39,159.68,39.32Z"/><path class="cls-3" d="M164.5,39.78c-.27-.1-.49-.12-.5.26-.17-.09-.4-.21-.32-.41s.47-.36.79-.29Z"/><path class="cls-3" d="M164,37.36c-.22-.08-.44-.18-.38-.48a.21.21,0,0,1,.16-.13c.27,0,.24.25.29.42A.44.44,0,0,0,164,37.36Z"/><path class="cls-3" d="M162.8,37.88c.3-.1.65-.4.71.23C163.23,38.15,163,38.18,162.8,37.88Z"/><path class="cls-3" d="M161.1,41c0-.23,0-.46,0-.7.3.2.73.35.24.79Z"/><path class="cls-3" d="M152.78,14.88a.71.71,0,0,1,.41-.77C153.09,14.39,153.57,15,152.78,14.88Z"/><path class="cls-3" d="M170.11,22.09c-.08-.38-.14-.65-.21-.93C170.25,21.38,170.61,21.58,170.11,22.09Z"/><path class="cls-3" d="M126.57,51c.4,0,.77-.34,1.2-.15.15.62-.36.73-.73.94s-.76-.28-1,.25l-.1,0h-.11C125.68,51.44,126.66,51.57,126.57,51Z"/><path class="cls-3" d="M122.73,52.08a1.67,1.67,0,0,1,.23-1,1.28,1.28,0,0,1,.71.75C123.4,52.06,123.13,52.33,122.73,52.08Z"/><path class="cls-3" d="M123.88,50.84c.25-.36.5.28.76,0,.24,0,.55.12.17.37S124.08,51.24,123.88,50.84Z"/><path class="cls-3" d="M126,51c-.09.17-.17.36-.4.33s-.21-.08-.18-.22.23-.29.41-.31S126,50.83,126,51Z"/><path class="cls-3" d="M146.71,51.3l-.5.21a.49.49,0,0,1-.45.24,4.13,4.13,0,0,1-1.82-.72c-.24-.25-.31-.5,0-.77a1,1,0,0,1,1,0l.26.11c.16,0,.21-.07.2-.21a.76.76,0,0,0-.31-.41,2.76,2.76,0,0,1-.87-.56,1.56,1.56,0,0,1-.49-.85.59.59,0,0,1,.51-.6c.52-.16.89.26,1.35.34.31,0,.48.32.75.43a.49.49,0,0,1,.2.18c-.23.87.53.25.73.48.16.38-.24.69-.13,1.06S146.62,50.88,146.71,51.3Z"/><path class="cls-3" d="M148.16,47.48c.77-.45,1.51.07,2.1.32s.42,1-.22,1.39a.42.42,0,0,1-.3.1.53.53,0,0,1-.27-.16c-.2-.31-.55-.49-.78-.77l-.06-.15Z"/><path class="cls-3" d="M146.48,48.7h-.16c-.39-.14-.37-.63-.7-.82s-.74-.4-.61-.93a.85.85,0,0,1,.73-.28,2.54,2.54,0,0,1,1.24.73c-.11.26,0,.44.23.59C147,48.27,146.44,48.16,146.48,48.7Z"/><path class="cls-3" d="M149.61,49.1l.27.1c0,.44-.37.42-.65.5h-.15c-.7,0-1.13-.21-.94-1a.31.31,0,0,1,.29-.09A8.75,8.75,0,0,1,149.61,49.1Z"/><path class="cls-3" d="M149.62,50.4a.23.23,0,0,1,0,.21c-.39.1-.8.24-1-.26s.65-.19.53-.66l.1-.1c.23,0,.39.08.42.34Z"/><path class="cls-3" d="M146.71,51.3c-.23-.46.19-.78.25-1.17-.05-.15,0-.27.16-.25s.09.14.08.24a.91.91,0,0,0,.5.5.68.68,0,0,1-.21.75.23.23,0,0,1-.29,0C147.05,51.06,146.88,51.31,146.71,51.3Z"/><path class="cls-3" d="M147.2,50.12c-.08-.17-.16-.16-.24,0-.51-.47.21-.62.25-1C148.08,49.5,147.32,49.81,147.2,50.12Z"/><path class="cls-3" d="M148.66,51.51l-.44.11a.47.47,0,0,1-.59-.29c0-.33.12-.59.54-.49A.76.76,0,0,1,148.66,51.51Z"/><path class="cls-3" d="M147.21,48c-.32,0-.48-.14-.32-.48,0-.2.06-.31.24-.38a.44.44,0,0,1,.3.12l.25.7Z"/><path class="cls-3" d="M148.47,48.72l-.33,0c-.24-.59.15-.5.49-.47h0C148.84,48.46,148.78,48.62,148.47,48.72Z"/><path class="cls-3" d="M148.17,50.84a.73.73,0,0,0-.45.44.19.19,0,0,1-.32,0l.3-.67Z"/><path class="cls-3" d="M147.43,47.26a.78.78,0,0,0-.22,0,1.72,1.72,0,0,1-.88-.47c-.16-.13-.33-.24-.49-.36s-.43-.33-.45-.63a.94.94,0,0,1,.28-.59c.32-.29.82-.51.29-1.08a.49.49,0,0,1,.14-.79c.32-.11.59.18.91.1s.48-.19.73-.24c.44-.29.92.23,1.36-.06s.68-.12,1-.27a.46.46,0,0,1,.3,0,1.05,1.05,0,0,1,.15,1.17,1.14,1.14,0,0,0,.11.83.63.63,0,0,0,.45.55,6.35,6.35,0,0,1,.76,0c1.24.5,1.24.5.83,2a1.33,1.33,0,0,1-1.16.5c-.64.05-.86-.4-1.08-.89-.11-.26-.14-.24-.53,0-.08,0-.25.08-.29,0C148.83,46.29,148.15,47.13,147.43,47.26Z"/><path class="cls-3" d="M152.69,47.47c-.84-.51.18-.82.15-1.25-.31-.31-.84-.26-1.08-.66.31-.6.66-1.2.14-1.87a2.52,2.52,0,0,1,0-1.28.61.61,0,0,1,.29-.14c.6-.11.68.55,1.09.72.07-.2-.07-.37-.09-.55a3.45,3.45,0,0,0-.11-1.06c.29-.82,1.22-.81,1.75-1.32l.2-.26c.51-.12.85-.74,1.47-.49-.45.52.26.79.25,1.22-.25.34-.25.34.59.54a.66.66,0,0,1,.24.23c.14.46.78.77.38,1.37.14.45.87.55.71,1.18a.54.54,0,0,1-.36.23c-.13.07-.22.16-.18.32a1.34,1.34,0,0,0,.29.45l.07,0-.08.43h-1.4a1.59,1.59,0,0,0-.95.49h-.28c-.18-.11-.38-.4-.51,0-.82.18-1.2,1-1.88,1.34Z"/><path class="cls-3" d="M155.32,45.85l-.5-.27c.06-.08.1-.22.17-.24a.7.7,0,0,1,.84.47Z"/><path class="cls-3" d="M156.11,45.8c.29-.22.28-1,.95-.49A1.45,1.45,0,0,1,156.11,45.8Z"/><path class="cls-3" d="M33,52.74l.5-.46a.4.4,0,0,1,.19.58C33.4,53.19,33.19,52.73,33,52.74Z"/><path class="cls-3" d="M117.68,48.2h.72c.16.62-.47.65-.72.95-.45.17-.79.87-1.39.28.27-.29.12-.66.19-1l.24-.23C117,47.91,117.36,48.1,117.68,48.2Z"/><path class="cls-3" d="M52.4,56.79c-.44.25-.44-.11-.51-.36.09-.16.18-.44.36-.35S52.34,56.55,52.4,56.79Z"/><path class="cls-3" d="M140.21,42l0,.26c.3.15-.14.56.23.7.32-.08,1,.65.91-.41,0-.16.38-.34.59-.52s.82.1,1.11-.28a.71.71,0,0,1,.41-.25,5.35,5.35,0,0,1,1.26-.14.53.53,0,0,1,.27.16.43.43,0,0,0,.41.23.37.37,0,0,1,.23.39c-.08.54-1,.48-.88,1.14a.64.64,0,0,1-.35.49c-.47.12-.68-.33-1-.47a.64.64,0,0,0-.5.1,1.58,1.58,0,0,1-.36.2,3.24,3.24,0,0,0-.79.28c-.16.67.54.65.8,1a.79.79,0,0,1,.16,1,.65.65,0,0,1-.47.2,2.86,2.86,0,0,1-.94-.38,2.54,2.54,0,0,0-1.72,0c-.25-.16-.58-.1-.81-.31v0c-.23-.14-.44-.45-.72-.07a3,3,0,0,0-1.66.76c-.53.26-.63-.08-.64-.48a2.07,2.07,0,0,1,.4-1c.12-.16.26-.29.48-.22l.29-.33a.23.23,0,0,1,.16.06c1.19.81,1.38-.47,2-.94.21-.34-.32-.69,0-1C139.44,42.11,139.82,42,140.21,42Z"/><path class="cls-3" d="M136.4,44.6c.26.48-1.19,1,0,1.44a.74.74,0,0,1,0,.21c-.07.26-.32.38-.47.57a1.28,1.28,0,0,0-.78.28,2,2,0,0,1-.65,0c-.26-.19-.4-.4-.16-.7s.83-.24.49-.82a.65.65,0,0,1,.27-1.05,1.13,1.13,0,0,0,1,0A.3.3,0,0,1,136.4,44.6Z"/><path class="cls-3" d="M138.79,45.33c.24.08.67-.41.73.23.3.41,0,.57-.3.74h-.16l-.49-.09C138.5,45.89,138.42,45.55,138.79,45.33Z"/><path class="cls-3" d="M138.06,45.28c.06-.21,0-.6.21-.56s.34.4.51.63Z"/><path class="cls-3" d="M116.88,52.05h.33c.82,0,1,.57,1.1,1.17a.56.56,0,0,1-.09.47h-.38c-.39-.6-1.23-.83-1.34-1.65A.23.23,0,0,1,116.88,52.05Z"/><path class="cls-3" d="M116.88,52.05h-.38l-.18-.69C116.65,51.47,117,51.54,116.88,52.05Z"/><path class="cls-3" d="M141.2,49.89c.39-1.07-.41-.45-.73-.51-.26-.36-.58-.64.26-.76.32,0,.6-.65,1.13-.6a.61.61,0,0,1,.42.29c.09.26.09.57.44.66.11.6-.34,1-.62,1.38l-.14.09a.61.61,0,0,1-.3,0c-.18-.11-.26-.32-.43-.43Z"/><path class="cls-3" d="M141.92,48.17c-.48.41-1.53.12-1.45,1.21-.89.18-.89.18-.66-1.14.26-.34.62-.55.9-.86a1.26,1.26,0,0,1,.33-.1,1.23,1.23,0,0,1,.94.4A.39.39,0,0,1,141.92,48.17Z"/><path class="cls-3" d="M140.7,47.48c-.1.49-.34.81-.89.76l-.3-.42c.55-.12.51-.42.24-.79a.4.4,0,0,1,.48-.32A1.51,1.51,0,0,1,140.7,47.48Z"/><path class="cls-3" d="M118.18,53.24c-.29-.42-.44-1-1-1.19,0-.66.5-.71,1-.73a1,1,0,0,1,.69-.33.5.5,0,0,1,.29.09c.17.19.29.42.45.63a.5.5,0,0,1,.06.44l-.11.12a.89.89,0,0,0-.7.48C118.65,52.9,118.62,53.36,118.18,53.24Z"/><path class="cls-3" d="M120.57,52.07c-.15.38-.2.83-.69,1-1,.11-.27-.47-.29-.75h0c.39-.18.29-1.16,1.09-.64A.42.42,0,0,1,120.57,52.07Z"/><path class="cls-3" d="M102.1,52.68l-.21.11c-.16-.07-.43,0-.44-.27a.44.44,0,0,1,.25-.32C102,52.18,102,52.5,102.1,52.68Z"/><path class="cls-3" d="M120.57,52.07l0-.52a9.39,9.39,0,0,1-1.41-.64.38.38,0,0,1-.09-.29c.15-.38.67-.35.8-.75h0c.42-.05.85-.1.72-.7.46-.26.47-.79.72-1.17a.32.32,0,0,1,.48-.06l-.22.72c.34.43,1,.69.72,1.45-1,.31-.41.63,0,1a.84.84,0,0,1-.5.79Z"/><path class="cls-3" d="M89.84,1.64c0-.31-.29-.36-.5-.47.08-.25.28-.26.49-.28C89.88,1.14,90.24,1.38,89.84,1.64Z"/><path class="cls-3" d="M141.42,51.81l-.46-.26a.57.57,0,0,1,0-.69c.11-.33.29-.56.68-.54l.09.12a.76.76,0,0,1,.14.6,1.34,1.34,0,0,1-.33.7Z"/><path class="cls-3" d="M141.66,50.32l-.68.54c-.53-.47.32-.53.25-.86C141.54,49.89,141.65,50,141.66,50.32Z"/><path class="cls-3" d="M140.67,52.75a.26.26,0,0,1,0,.21c-.27-.16-.66.26-.89-.17C140,52.34,140.36,52.6,140.67,52.75Z"/><path class="cls-3" d="M118.9,51.1c-.18.22-.45.17-.69.22-.26-.5-.77-.58-1.25-.72l0-.45a1.11,1.11,0,0,1,1.4,0l.12.11c.14.23.21.49.33.72C118.87,51,118.88,51.05,118.9,51.1Z"/><path class="cls-3" d="M117.68,49.15c0-.5.63-.52.72-.95,0-.14,0-.29,0-.43l.49-.06a3.26,3.26,0,0,1,.75.17.48.48,0,0,1,.26.52c-.42.17-1.16-.09-1,.79Z"/><path class="cls-3" d="M119.84,49.87c0,.48-.4.57-.72.74a1,1,0,0,1-.65-.4l-.07-.09c.45-.17.34-.61.46-.94.2,0,.41.16.37.35C119.06,50.37,119.51,50,119.84,49.87Z"/><path class="cls-3" d="M168.32,39.58a.67.67,0,0,0-.72-.74.54.54,0,0,1,.49-.25c.24-.13.33.06.43.21S168.72,39.4,168.32,39.58Z"/><path class="cls-3" d="M168.52,38.8l-.43-.21c0-.22-.26-.55,0-.61.4-.09.43.32.49.62A1.18,1.18,0,0,1,168.52,38.8Z"/><path class="cls-3" d="M86.26,50.86c-.34-.24-.22-.48,0-.64s.6-.07.64.36C86.79,50.86,86.48,50.74,86.26,50.86Z"/><path class="cls-3" d="M145.77,51.57l.44-.06c.23.12.73-.13.64.43-.06.38-.29.48-.68.36a.46.46,0,0,0-.66.45.22.22,0,0,1-.3,0,.76.76,0,0,1-.08-.67A1,1,0,0,1,145.77,51.57Z"/><path class="cls-3" d="M147.4,51.29h.32l.5.34c-.34.31-.31,1-1,.94a.83.83,0,0,0,0-1.23A.65.65,0,0,0,147.4,51.29Z"/><path class="cls-3" d="M145.32,52.78l.19,0c.16.26.35,0,.53,0-.09.61-.34.71-.77.23A.14.14,0,0,1,145.32,52.78Z"/><path class="cls-3" d="M171,36.62l-.25-.65c.26,0,.53,0,.71.21C171.22,36.27,171.41,36.78,171,36.62Z"/><path class="cls-3" d="M159.91,43.64c0-.34-.32-.48-.51-.69.31,0,.52-.18.53-.52.24,0,.34.07.27.31-.18.44.33.58.4.91Z"/><path class="cls-3" d="M158.47,44.85c-.19,0-.37,0-.47-.22-.23-.36,0-.58.26-.77h.46v0c.15.28-.11.35-.24.48Z"/><path class="cls-3" d="M158.48,44.37l.24-.48h.2l.28.23C159,44.43,158.75,44.36,158.48,44.37Z"/><path class="cls-3" d="M26.78,55.39c0-.86.81-.33,1.12-.66.16.44.06.7-.45.68Z"/><path class="cls-3" d="M120.8,2.86l-.68.09c.07-.27.13-.54.2-.81l.48-.25A.84.84,0,0,1,120.8,2.86Z"/><path class="cls-3" d="M134.49,46.52c-.28.13-.06.29,0,.43a.85.85,0,0,1-.3.44.33.33,0,0,1-.36.12l-.77.22-.24-.25c-.08-.87-.91-1.27-1.23-2,.24-.57.62-.31,1-.18s.39.43.69.28c.08,0-.09-.26-.12-.41s-.06-.61.4-.58A5.63,5.63,0,0,1,135,43.16l.73,0c.07.24.15.47.23.7s0,.44-.1.64-.37.28-.6.09a.65.65,0,0,0-.24,1C135,46,134.68,46.22,134.49,46.52Z"/><path class="cls-3" d="M134,47.26c.06-.22.26-.26.45-.31l.74,0a.23.23,0,0,1,0,.25c-.32,0-.6,0-.47.48l-.3,0C134.31,47.55,134.15,47.42,134,47.26Z"/><path class="cls-3" d="M135.21,47.24V47c0-1,.41-.47.77-.25a.37.37,0,0,1,.17,0c.38.87-.39.58-.73.71Z"/><path class="cls-3" d="M131.6,45.55a1.84,1.84,0,0,1,1.2,1.93l-.73.24c-.18-.35-.63,0-.81-.31s.77-.68.28-1.23a1.6,1.6,0,0,1,0-.49S131.57,45.6,131.6,45.55Z"/><path class="cls-3" d="M145.32,52.78c0,.08,0,.16,0,.23-.28.17-.16.46-.22.69l-.27.32a.32.32,0,0,1-.33-.29,3.3,3.3,0,0,1,0-1.13,1.15,1.15,0,0,1,.28-.41c.18-.13.36-.26.59-.14Z"/><path class="cls-3" d="M160.2,42.74l-.27-.31c.14-.37-.37-.68-.11-1.09.58,0,.19.72.58.87l.5.49a1.46,1.46,0,0,0-.07.19A.63.63,0,0,1,160.2,42.74Z"/><path class="cls-3" d="M128,50.87l.19-.32a1,1,0,0,1,1.29.08c0,.13,0,.27,0,.4-.34-.06-.58.16-.85.29C128.12,51.54,128,51.3,128,50.87Z"/><path class="cls-3" d="M120.8,2.86v-1c.56.12.33.65.5,1A.45.45,0,0,1,120.8,2.86Z"/><path class="cls-3" d="M141,53.49c1-.34,0-1.19.46-1.68h0c.34-.3.63-.09.93.1.26.34.07.76.18,1.13a1.83,1.83,0,0,1,0,.33c-.1.39,0,.82-.35,1.14a.57.57,0,0,1-.51,0l0,0c-.28-.15-.23-.54-.51-.69Z"/><path class="cls-3" d="M141.18,53.73c.49,0,.51.34.51.69l-.67.31-.27-.24.27-.3A.42.42,0,0,0,141.18,53.73Z"/><path class="cls-3" d="M138.56,8.12c0-.14,0-.29,0-.43l.44-.07.68.06c.14.47-.3.24-.45.38l-.28.29A.42.42,0,0,1,138.56,8.12Z"/><path class="cls-3" d="M139.27,8.06l.45-.38c.14,0,.36-.06.35.16s-.21.2-.33.3Z"/><path class="cls-3" d="M129.48,50.63l-1.29-.08c0-.49-.16-.91.7-.67.3.08.87-.66,1.25-1.09a.68.68,0,0,1,.58-.3c-.73.77.53.51.48.93-.27,0-.59-.05-.79.23-.37.06-.53.33-.68.63l0,.31-.1,0Z"/><path class="cls-3" d="M141.67,54.47l.49-.06c1.3-.62,1.51-.59,1.92.29l-.36.24a.93.93,0,0,0-1.29,0C142.28,54.6,141.86,54.72,141.67,54.47Z"/><path class="cls-3" d="M144.08,54.7c-.5-1.05-1.32.07-1.92-.29.06-.39-.14-.83.21-1.17.43.25.7.12.81-.36.29-.46.56-1,1.19-.43.2.41-.36.94.21,1.28.07.1.13.2.2.29l0,.09C144.51,54.24,144.6,54.85,144.08,54.7Z"/><path class="cls-3" d="M127,48.93c.09-.24.17-.48.25-.72.35-.06.52-.19.27-.55s-.69-.5,0-.77c.39-.16.77-.27,1,.29a6,6,0,0,0,.42.84c-.15.09-.4.13-.21.39-.27.46-1,.13-1.19.76C127.26,49.29,127.15,49.11,127,48.93Z"/><path class="cls-3" d="M131.35,47.45l-.18.25-.55-.23a2.16,2.16,0,0,1-.46-.72l.24-1.19h.24l.12.1c.22.53.79.06,1.07.39C132.15,46.68,131.6,47,131.35,47.45Z"/><path class="cls-3" d="M122.25,50.12c0-.61-.84-.79-.72-1.45,1,.15,1.25.8,1.19,1.69Z"/><path class="cls-3" d="M128.74,45.34c.44,0,.7.22.69.7C128.48,46.52,128.75,45.79,128.74,45.34Z"/><path class="cls-3" d="M123.72,49.62l-.8-.45c.1-.52.43-.45.78-.3a.4.4,0,0,0,.2.11A.53.53,0,0,1,123.72,49.62Z"/><path class="cls-3" d="M130.16,46.75c.48,0,.5.36.46.72a.83.83,0,0,1-.77-.33C129.75,47,130,46.84,130.16,46.75Z"/><path class="cls-3" d="M127,48.93l.48.24c.24.81-.38.37-.65.44A.66.66,0,0,1,127,48.93Z"/><path class="cls-3" d="M128.71,48.41c-.23,0-.67.15-.58-.26s.5-.19.79-.13Z"/><path class="cls-3" d="M126.32,47.72h-.47c0-.27,0-.69.44-.56S126.39,47.53,126.32,47.72Z"/><path class="cls-3" d="M154.88,40.06c-.17.93-1.34.69-1.68,1.43a.41.41,0,0,1,0,.51.8.8,0,0,1-1-.07,5.32,5.32,0,0,1-.76-1.11,2.4,2.4,0,0,1-.07-1.3c.16-.22.22-.58.62-.39.23.61.56,1,1.29.69A1.5,1.5,0,0,1,154.88,40.06Z"/><path class="cls-3" d="M153,38.36a6.75,6.75,0,0,0,.67-.64c.21-.25.41-.52.76-.38s.32.43.34.78c0,.51-.09.74-.62.69-.13-.15,0-.59-.43-.39C153.45,38.52,153.18,38.61,153,38.36Z"/><path class="cls-3" d="M158.26,39.81H158c0-.3,0-.78-.28-.78-1,0-.25-.63-.44-.9.25-.18.49,0,.74,0,.72.37.26,1.22.69,1.71A.31.31,0,0,1,158.26,39.81Z"/><path class="cls-3" d="M156.55,39.31c-.53,0-.77.95-1.47.49,0-.39,0-.84.58-.84C156,39,156.49,38.6,156.55,39.31Z"/><path class="cls-3" d="M157.53,41.25l-.94,0c-.37,0-.65-.22-.55-.57s.46-.31.76-.13H157C157.61,40.5,157.61,40.84,157.53,41.25Z"/><path class="cls-3" d="M157.53,41.25l-.49-.71c.17-.26.16-.78.72-.5a1.11,1.11,0,0,0,.3.81c.24.3-.09.34-.3.39s-.16.12-.24,0Z"/><path class="cls-3" d="M158.26,39.81l.45,0c.1.22.2.45.29.68C158.43,40.77,158.31,40.66,158.26,39.81Z"/><path class="cls-3" d="M157.29,37.9c.17-.28.2-.8.68-.67s.06.44,0,.67A.56.56,0,0,1,157.29,37.9Z"/><path class="cls-3" d="M152.88,38.59l.59,0q.1,1-.75.45C152.79,38.92,153.06,38.83,152.88,38.59Z"/><path class="cls-3" d="M157.29,37.9h.7a.78.78,0,0,0,0,.22c-.25.39-.49.09-.74,0A1.62,1.62,0,0,1,157.29,37.9Z"/><path class="cls-3" d="M120.55,49.18a.61.61,0,0,1,.17,1c-.36.38-.56-.24-.89-.28A.66.66,0,0,1,120.55,49.18Z"/><path class="cls-3" d="M123.7,48.87c-.3,0-.6,0-.78.3a.57.57,0,0,1,.3-1C123.73,48,123.64,48.56,123.7,48.87Z"/><path class="cls-3" d="M121.75,48l-.48.06c-.21-.09-.5-.12-.36-.46a.37.37,0,0,1,.48-.23C121.66,47.43,122.05,47.5,121.75,48Z"/><path class="cls-3" d="M119.88,48.4l-.32-.4a.41.41,0,0,1,0-.51.69.69,0,0,1,.72.59C120.37,48.38,120.14,48.45,119.88,48.4Z"/><path class="cls-3" d="M119.6,47.49c0,.17,0,.34,0,.51-.35.19-.56,0-.69-.29l.29-.41C119.34,47.29,119.51,47.3,119.6,47.49Z"/><path class="cls-3" d="M173.32,30.64c0,.31-.08.48-.32.49a.31.31,0,0,1-.33-.38c0-.26.16-.46.43-.46S173.31,30.55,173.32,30.64Z"/><path class="cls-3" d="M145.53,41.49,146,41a1,1,0,0,1,1.28-.21c.73.4.54.9.17,1.43a.88.88,0,0,1-.22.25c-.61.22-.83-.39-1.24-.59A3.12,3.12,0,0,1,145.53,41.49Z"/><path class="cls-3" d="M148.38,39.54a.56.56,0,0,1,.49-.23l.13.11a5.29,5.29,0,0,1,.27,1.11,1.16,1.16,0,0,1-.45,1,1.19,1.19,0,0,1-.42.28.58.58,0,0,1-.32,0c-.44-.47,0-.9.08-1.34C148,40.12,148.92,40,148.38,39.54Z"/><path class="cls-3" d="M148.16,40.48c.58.41-.39.86,0,1.27a.32.32,0,0,1,0,.34.63.63,0,0,1-1,.12c-.05-.38.82-.81-.06-1.16l.07-.15c.18-.23.47-.25.7-.38Z"/><path class="cls-3" d="M147.15,41.05c-.38-.36-.77.07-1.15,0,.62-1.18.78-1.25,1.52-.7a.7.7,0,0,1-.31.65Z"/><path class="cls-3" d="M145,41.49h-.25c-.29-.23-.74-.13-.95-.5l.24-.7C144.66,40.48,145.64,40.36,145,41.49Z"/><path class="cls-3" d="M146.41,37.86c-.08-.08-.25-.17-.27-.28s.15-.35.35-.33.32.14.34.24S146.68,37.8,146.41,37.86Z"/><path class="cls-3" d="M145.53,41.49a.47.47,0,0,1,.47.23c.14.25,0,.4-.19.54a.26.26,0,0,1-.29-.06c0-.16-.05-.32-.07-.48S145.5,41.57,145.53,41.49Z"/><path class="cls-3" d="M151.08,38.81l.24.25c.23.54-.24,1.14.16,1.67.64.06.53.68.78,1,0,.29-.2.36-.41.44-.58-.06-.57.66-1,.79a.69.69,0,0,1-.4-.24c-.33-.39-.07-.9-.26-1.31s.1-.81-.06-1.2.17-.89-.53-.49a1.11,1.11,0,0,1-.71-.42h0l-.21-.72h1A2.51,2.51,0,0,1,151.08,38.81Z"/><path class="cls-3" d="M151.08,38.81a1.26,1.26,0,0,1-1.43-.21c.66,0,.76-.9,1.41-.94C151.07,38,151.07,38.43,151.08,38.81Z"/><path class="cls-3" d="M140.91,41.46l.32-.43a.75.75,0,0,1,.43.92C141.28,42,141.08,41.75,140.91,41.46Z"/><path class="cls-3" d="M143.78,41.51l-.68.21a.5.5,0,0,1-.2-.51l.77-.17A1.08,1.08,0,0,1,143.78,41.51Z"/><path class="cls-3" d="M142.91,40.05a1.55,1.55,0,0,0,0,.21c-.24,0-.49.31-.71,0a.33.33,0,0,1,.06-.3C142.48,39.72,142.71,39.83,142.91,40.05Z"/><path class="cls-3" d="M140.21,42c-.27.52-.63.61-1.09.23-.09,0-.13-.07-.12-.13s0-.11,0-.11c-.18-.43-1,0-1-.72l.75-.5c.25.14.28.59.69.5h.24C139.71,41.61,140.12,41.69,140.21,42Z"/><path class="cls-3" d="M139,42a2.25,2.25,0,0,1,.08.24c-.06.32.44.68-.07,1C138.84,42.76,137.72,42.36,139,42Z"/><path class="cls-3" d="M132.52,45.56c-.31-.15-.61-.41-.92,0h0a.41.41,0,0,1-.49.09c-.18-.2-.48-.4,0-.57s.49-.42.49-.77,0-.63.47-.67c.73,1.56.79-.2,1.2-.24l.24,1.2c-.28.17-.23.44-.24.7C133.09,45.59,132.8,45.55,132.52,45.56Z"/><path class="cls-3" d="M131.12,45.08c-.27.16,0,.32,0,.47a.33.33,0,0,1-.49,0h0C130.72,45.32,130.47,44.76,131.12,45.08Z"/><path class="cls-3" d="M135.7,44.39l.22-.51c.56-.32.77-.1.72.49l-.24.23h-.16C136,44.77,135.82,44.62,135.7,44.39Z"/><path class="cls-3" d="M143.78,41.51l-.11-.47a.27.27,0,0,0,.17-.06c.31.19.95-.27.95.5C144.47,41.88,144.12,41.52,143.78,41.51Z"/><path class="cls-3" d="M160.88,36.92c-.48,0-.72-.2-.47-.71C161,36.18,160.92,36.56,160.88,36.92Z"/><path class="cls-3" d="M140.49,42.93c-.05.17,0,.41-.28.43s-.27-.23-.23-.4a5,5,0,0,1,.28-.73l.41-.34A.71.71,0,0,1,140.49,42.93Z"/><path class="cls-3" d="M144.76,39.07c0,.28-.2.28-.38.33s-.27,0-.28-.21a.33.33,0,0,1,.34-.37A.28.28,0,0,1,144.76,39.07Z"/><path class="cls-3" d="M157.52,41.24h.24l.23.23a1,1,0,0,1,.28,1.19H158C157.85,42.19,157.68,41.72,157.52,41.24Z"/><path class="cls-3" d="M158.27,42.66,158,41.47C158.73,41.72,158.61,42.16,158.27,42.66Z"/><path class="cls-3" d="M144.35,47.94a.57.57,0,0,0-.53.54c-.08.2,0,.48-.35.51s-.6-.37-.46-.67c.3-.64,0-1.32.21-1.94a.42.42,0,0,1,.27-.2,1.56,1.56,0,0,1,.84.23,1.49,1.49,0,0,1,.23.27A.93.93,0,0,1,144.35,47.94Z"/><path class="cls-3" d="M145.27,52.05l-.46.25c-.51,0-1-.38-1.51-.26a.68.68,0,0,1-.08-.66c.15-.4.52-.43.85-.53l1.7.72A.79.79,0,0,1,145.27,52.05Z"/><path class="cls-3" d="M144.07,50.85c-.15.3-.47.33-.72.48a.71.71,0,0,1-.68.18.74.74,0,0,1-.51-.49.83.83,0,0,1,0-.69c.31-.31.55-.76,1.11-.59a.43.43,0,0,1,.21.19c0,.37.17.08.27.08s.42,0,.34.33S143.83,50.69,144.07,50.85Z"/><path class="cls-3" d="M144.35,47.94c-.08-.39.4-.79,0-1.17a.77.77,0,0,1,.61-.3.37.37,0,0,1,.15.58c.23.14.14.7.64.48.35.34,0,.51-.17.72s-.3.48-.48.09A.6.6,0,0,0,144.35,47.94Z"/><path class="cls-3" d="M143.37,50.1c0-.07,0-.15,0-.22a.23.23,0,0,1-.08-.18c0-.07,0-.11,0-.11a1.33,1.33,0,0,1,.26-.21,1.38,1.38,0,0,1,.77-.22l1,.45c-.77.15.12.71-.23,1l-1-.22a.43.43,0,0,0-.51-.19A.12.12,0,0,1,143.37,50.1Z"/><path class="cls-3" d="M145.07,50.57c.25-.28-1-.93.23-1l.24.51c.13.45.1.73-.48.45Z"/><path class="cls-3" d="M145.55,48.25c0-.24.11-.48.17-.72a3,3,0,0,1,.6,1.18C145.75,49.08,145.89,48.26,145.55,48.25Z"/><path class="cls-3" d="M145.06,50.57c.32,0,.45-.16.48-.45.18.18.31.4.09.6S145.2,50.82,145.06,50.57Z"/><path class="cls-3" d="M148.47,48.72a.46.46,0,0,0,.16-.51c.37.25,1.06.14,1,.89C149.19,49.08,148.69,49.32,148.47,48.72Z"/><path class="cls-3" d="M145.08,47.05l-.17-.53-.16,0a1.08,1.08,0,0,0-.24-.89.47.47,0,0,1,0-.31,1.77,1.77,0,0,1,.54-.55.54.54,0,0,1,.45,0c.31.33-.14.67,0,1l.53.51a.74.74,0,0,1-.13.45l-.13.1Z"/><path class="cls-3" d="M146.51,46.51l.7.72-.32.29c-.47-.09-.76-.46-1.14-.7l0-.1C146,46.49,146.31,46.7,146.51,46.51Z"/><path class="cls-3" d="M145.74,42.24l.26-.52c.62-.14.61.74,1.15.71a1.57,1.57,0,0,0,.83-.07.46.46,0,0,1,.28.06,5.07,5.07,0,0,0,.68.27.88.88,0,0,1,.24.19.26.26,0,0,1,0,.28c.06.24.37.55,0,.73s-.23-.29-.37-.43c-.37-.37-.76.1-1.12-.07s-.51.08-.7.28c-.38.32-.44-.07-.59-.26a.91.91,0,0,1-.28-.17C145.89,42.94,145.48,42.71,145.74,42.24Z"/><path class="cls-3" d="M149.14,43.16a1,1,0,0,1,0-.24,3.75,3.75,0,0,0-.18-1,2.88,2.88,0,0,1-.3-.47c.16-.32.52-.53.48-.94-.11-.21,0-.29.2-.34a.4.4,0,0,1,.38.25c.07.48.53.79.58,1.29-.11.38.15.82-.17,1.17C150,43.71,149.47,43.1,149.14,43.16Z"/><path class="cls-3" d="M152,43.65c.87.75.89,1.4-.23,1.91l-.71.24a1,1,0,0,1-.15-1.1,1.37,1.37,0,0,0,.56-.81A.56.56,0,0,1,152,43.65Z"/><path class="cls-3" d="M147.19,45.07a4,4,0,0,1,1.89-.42.39.39,0,0,1,.42.47.85.85,0,0,1-.86.68h0c-.18-.44-.4-.83-1-.73A.32.32,0,0,1,147.19,45.07Z"/><path class="cls-3" d="M151.51,43.89c.25.51.48,1-.47.72-.29.15-.4-.13-.57-.25a.75.75,0,0,1-.15-.24,2.15,2.15,0,0,0,0-1.18.27.27,0,0,1,.28-.25l.2.24A1.62,1.62,0,0,1,151.51,43.89Z"/><path class="cls-3" d="M147.19,45.07h.48c-.21.37-.94.44-.54,1.12-.53,0-.81-.3-.77-.62S146.84,45.14,147.19,45.07Z"/><path class="cls-3" d="M150.61,42.69l-.28.25-.22,0V41.5c.06-.13.13-.14.22,0C151.21,41.69,150.05,42.39,150.61,42.69Z"/><path class="cls-3" d="M151,46.75c.09-.39.19-.6.42-.56a.56.56,0,0,1,.49.58c0,.31-.27.17-.45.13S151,47,151,46.75Z"/><path class="cls-3" d="M151,45.09c0,.24,0,.48,0,.71-.48-.17-.84-.42-.53-1l.16,0A.66.66,0,0,1,151,45.09Z"/><path class="cls-3" d="M148.14,46.49c-.2.1-.47.32-.55,0s.24-.52.55-.62A.42.42,0,0,1,148.14,46.49Z"/><path class="cls-3" d="M148,44.11c-.1.17-.12.37-.32.3a.38.38,0,0,1-.18-.26c0-.2.15-.26.32-.23S148,44.05,148,44.11Z"/><path class="cls-3" d="M147,43.67c0-.54.27-.68.7-.28Z"/><path class="cls-3" d="M150.32,44.12a.29.29,0,0,0,.16,0c.31.19.25.41,0,.64h0C150.26,44.62,149.79,44.51,150.32,44.12Z"/><path class="cls-3" d="M148.14,46.49v-.66l.51,0h0A.61.61,0,0,1,148.14,46.49Z"/><path class="cls-3" d="M151.51,43.89a1.13,1.13,0,0,1-.7-1c.24-.4.1-1.19,1-1,.12.13.36.2.22.45,0,.41.34.82,0,1.23A.51.51,0,0,1,151.51,43.89Z"/><path class="cls-3" d="M157.31,43.28c-.06.25,0,.6-.33.56-1-.12-.35-1.05-.72-1.49-.2-.23,0-.37.25-.34C157.24,42.14,157.06,42.86,157.31,43.28Z"/><path class="cls-3" d="M153.19,42v-.49c.85.19,0,.71.19,1,0,.3.23.57.05.88s-.37.21-.47-.1-.25-.83-.77-.9C152.34,41.78,152.93,42.29,153.19,42Z"/><path class="cls-3" d="M154.83,44.75c.44-.46.52-.94,1-.81a.35.35,0,0,1,.18.51C155.8,44.88,155.4,44.61,154.83,44.75Z"/><path class="cls-3" d="M153.19,42c-.21.42-.76,0-1,.41l-.2,0-.22-.45.48-.21Z"/><path class="cls-3" d="M153.6,45.74c-.18,0-.35,0-.36-.21a.29.29,0,0,1,.3-.3c.14,0,.38.08.41.17C154,45.69,153.71,45.62,153.6,45.74Z"/><path class="cls-3" d="M153.44,43.39c-.11-.29-.48-.56-.05-.88C153.49,42.8,154.29,43.05,153.44,43.39Z"/><path class="cls-3" d="M158.26,43.86c-.09.26-.18.51-.26.77C157.67,44.23,157.52,43.89,158.26,43.86Z"/><path class="cls-3" d="M142.39,44.85c-.81.34-.7-.79-1.28-.81l.55-.4a2.51,2.51,0,0,0,1-.2,2.83,2.83,0,0,1,.2-.28c.2.05.38.14.58.2s.53.31.82.41a.36.36,0,0,1,.21.21.86.86,0,0,1-.22.73c-.16.21-.31.44-.62.43A5.62,5.62,0,0,1,142.39,44.85Z"/><path class="cls-3" d="M143.6,48.93l.12.7-.36,0c-.43.24-.51,0-.55-.38a2.16,2.16,0,0,0-.81-1.68.73.73,0,0,1-.16-.77c.13-.22.58-.33.27-.72a.34.34,0,0,1,0-.28l.53,0c.43-.12.6.14.71.48-.07.73.45,1.49-.2,2.19C143.05,48.6,143.38,48.83,143.6,48.93Z"/><path class="cls-3" d="M140.24,46.05l-1.2.23c.15-.25.52-.34.48-.72.61-.7,1.31-.34,2-.18a.91.91,0,0,1-.62.82A.64.64,0,0,1,140.24,46.05Z"/><path class="cls-3" d="M143.36,46.28l-.71-.48a1.29,1.29,0,0,0-.26-.95c.41,0,.88-.41,1.23.14l0,.14c0,.25.07.5.11.74a.45.45,0,0,1-.16.41Z"/><path class="cls-3" d="M144.6,43.09l.64.34c.19.42,0,.78-.21,1.14-.59.14-.37-.57-.72-.69l0,0c-.14-.08-.14-.16,0-.26S144.56,43.3,144.6,43.09Z"/><path class="cls-3" d="M140.4,44.71c-.62.25-1,0-1.33-.62C139.61,44.33,140,44.29,140.4,44.71Z"/><path class="cls-3" d="M140.88,46l.64-.66.6.44a.65.65,0,0,0-.05.2.48.48,0,0,1-.27.17C141.48,46.22,141.15,46.31,140.88,46Z"/><path class="cls-3" d="M143.36,42.92l0,.68c-.32,0-.6,0-.57-.44A.5.5,0,0,1,143.36,42.92Z"/><path class="cls-3" d="M142.63,43.44c-.31.16-.52.76-1,.2C141.89,43.15,142.31,43.56,142.63,43.44Z"/><path class="cls-3" d="M134.49,46.52c-.05-.42.34-.61.49-.93.19,0,.45,0,.54.1s-.07.31-.24.37S134.86,46.55,134.49,46.52Z"/><path class="cls-3" d="M135.7,44.39l.54.21c-.33.31-.67,1-1,0A.47.47,0,0,0,135.7,44.39Z"/><path class="cls-3" d="M142.12,47.43a1.79,1.79,0,0,1,.85,1.65c0,.23,0,.58.39.57v.23c-.57-.17-.79.48-1.26.54l-.1,0-.08-.06.73-1.45c-.17-.14-.31-.3-.48-.44s-.17-.21-.25-.31,0-.33,0-.49S142,47.44,142.12,47.43Z"/><path class="cls-3" d="M142.17,48.49c.32,0,.51.09.48.44C142,49.27,142.16,48.82,142.17,48.49Z"/><path class="cls-3" d="M140.88,46c.35.1.7-.25,1.05,0a.23.23,0,0,1,.06.26,4.13,4.13,0,0,0-.45.72c-.15.2-.41.24-.56.44h-.28c-.52,0-.45-.41-.48-.74l0-.69Z"/><path class="cls-3" d="M119.12,50.84c.66-.14,1,.29,1.42.71-.43.09-.43.75-1,.72,0-.14,0-.28,0-.42,0-.3-.36-.44-.46-.71l-.27,0-.06-.05C118.85,50.87,118.92,50.76,119.12,50.84Z"/><path class="cls-3" d="M119.12,50.84l-.28.21c-.64,0-.41-.49-.37-.84.37-.12.51.13.65.4Z"/><path class="cls-3" d="M132.52,45.56c.19-.28.48-.24.76-.26s.58.3.38.66-.46.07-.68-.06S132.67,45.67,132.52,45.56Z"/><path class="cls-3" d="M130.64,45.56h1l.24.49C131.42,45.91,130.49,47.06,130.64,45.56Z"/><path class="cls-3" d="M143.32,52c.71-.9,1,.12,1.49.32l-.27.23c0,.1-.11.11-.2,0-.6-.4-.77.12-1,.47a.38.38,0,0,1-.37-.29.77.77,0,0,1,.07-.66A.31.31,0,0,1,143.32,52Z"/><path class="cls-3" d="M144.34,52.57l.2,0c-.12.4.49.79,0,1.2C143.39,53.57,144,53.05,144.34,52.57Z"/><path class="cls-3" d="M142.64,52.75l-.23.26c-.47-.31-.15-.63,0-.95l.3-.25a.2.2,0,0,1,.28.08C143,52.24,143,52.57,142.64,52.75Z"/><path class="cls-3" d="M151.48,40.73c-1.2-.45.12-1.14-.16-1.67.26.12.14.37.2.56C151.38,40,151.89,40.37,151.48,40.73Z"/><path class="cls-3" d="M148.12,42.41V42a2.5,2.5,0,0,0,.05-.29l.2,0h.74c.14.4.63.8,0,1.2h0a1.66,1.66,0,0,0-.91-.44Z"/><path class="cls-3" d="M149.39,40.27l-.27.25c-.4-.33-.19-.79-.23-1.19l.76.25C149.82,39.91,149.69,40.12,149.39,40.27Z"/><path class="cls-3" d="M149.56,40.52c.17.14.2.48.52.37s.22-.39.28-.61c.47.41-.07.79,0,1.19l-.22,0C150,41.14,149.13,41.2,149.56,40.52Z"/><path class="cls-3" d="M143.59,46.28v-.46a.28.28,0,0,1,.23-.1c.16.08.34,0,.51,0a.51.51,0,0,1,.16.25.56.56,0,0,1-.16.56C144.07,46.52,143.76,46.57,143.59,46.28Z"/></g></g></g></g></svg>